<svg width="100" height="35" viewBox="0 0 100 35" fill="none" xmlns="http://www.w3.org/2000/svg">
<rect width="100" height="35" rx="17.5" fill="#080809"/>
<path d="M21.7885 24.0013C19.4073 23.9876 17.4375 19.1266 17.4375 16.651C17.4375 12.6071 20.4711 11.7218 21.6402 11.7218C22.1671 11.7218 22.7297 11.9287 23.2259 12.1118C23.5729 12.2395 23.9318 12.3714 24.1314 12.3714C24.2508 12.3714 24.5324 12.2592 24.7809 12.1608C25.311 11.9498 25.9707 11.6875 26.7388 11.6875C26.7402 11.6875 26.742 11.6875 26.7433 11.6875C27.3169 11.6875 29.056 11.8134 30.1015 13.3835L30.3464 13.7515L29.9939 14.0175C29.4904 14.3974 28.5717 15.0905 28.5717 16.4633C28.5717 18.0893 29.6122 18.7146 30.112 19.0154C30.3327 19.1481 30.5611 19.285 30.5611 19.5844C30.5611 19.7798 29.001 23.9771 26.7356 23.9771C26.1812 23.9771 25.7894 23.8104 25.4438 23.6635C25.094 23.5147 24.7923 23.3866 24.2938 23.3866C24.0412 23.3866 23.7216 23.506 23.3833 23.6328C22.9211 23.8054 22.3978 24.0013 21.8041 24.0013H21.7885Z" fill="white"/>
<path d="M26.9825 8C27.0415 10.1274 25.5201 11.6033 24.0004 11.5107C23.75 9.81297 25.5199 8 26.9825 8Z" fill="white"/>
<path d="M39.03 12.9972H40.08L38.652 8.79719H37.428L36 12.9972H37.05L37.26 12.3372H38.82L39.03 12.9972ZM37.548 11.4372L38.04 9.89519L38.532 11.4372H37.548Z" fill="white"/>
<path d="M42.2049 9.99719L41.5809 11.8992L40.9569 9.99719H39.9609L41.0709 12.9972H42.0909L43.2009 9.99719H42.2049Z" fill="white"/>
<path d="M45.592 9.99719V10.2792C45.394 10.0512 45.1 9.91319 44.698 9.91319C43.912 9.91319 43.264 10.6032 43.264 11.4972C43.264 12.3912 43.912 13.0812 44.698 13.0812C45.1 13.0812 45.394 12.9432 45.592 12.7152V12.9972H46.492V9.99719H45.592ZM44.878 12.2292C44.464 12.2292 44.164 11.9472 44.164 11.4972C44.164 11.0472 44.464 10.7652 44.878 10.7652C45.292 10.7652 45.592 11.0472 45.592 11.4972C45.592 11.9472 45.292 12.2292 44.878 12.2292Z" fill="white"/>
<path d="M47.1523 12.9972H48.0523V8.61719H47.1523V12.9972Z" fill="white"/>
<path d="M49.1609 9.73319C49.4549 9.73319 49.7009 9.48719 49.7009 9.19319C49.7009 8.89919 49.4549 8.65319 49.1609 8.65319C48.8669 8.65319 48.6209 8.89919 48.6209 9.19319C48.6209 9.48719 48.8669 9.73319 49.1609 9.73319ZM48.7109 12.9972H49.6109V9.99719H48.7109V12.9972Z" fill="white"/>
<path d="M52.0635 9.91319C51.6615 9.91319 51.3675 10.0512 51.1695 10.2792V8.79719H50.2695V12.9972H51.1695V12.7152C51.3675 12.9432 51.6615 13.0812 52.0635 13.0812C52.8495 13.0812 53.4975 12.3912 53.4975 11.4972C53.4975 10.6032 52.8495 9.91319 52.0635 9.91319ZM51.8835 12.2292C51.4695 12.2292 51.1695 11.9472 51.1695 11.4972C51.1695 11.0472 51.4695 10.7652 51.8835 10.7652C52.2975 10.7652 52.5975 11.0472 52.5975 11.4972C52.5975 11.9472 52.2975 12.2292 51.8835 12.2292Z" fill="white"/>
<path d="M54.0077 12.9972H54.9077V8.61719H54.0077V12.9972Z" fill="white"/>
<path d="M56.3703 11.8572H58.5003C58.5243 11.7432 58.5363 11.6232 58.5363 11.4972C58.5363 10.5912 57.8883 9.91319 57.0123 9.91319C56.0643 9.91319 55.4163 10.6032 55.4163 11.4972C55.4163 12.3912 56.0523 13.0812 57.0783 13.0812C57.6483 13.0812 58.0923 12.8712 58.3863 12.4632L57.6663 12.0492C57.5463 12.1812 57.3363 12.2772 57.0903 12.2772C56.7603 12.2772 56.4843 12.1692 56.3703 11.8572ZM56.3523 11.1852C56.4363 10.8792 56.6643 10.7112 57.0063 10.7112C57.2763 10.7112 57.5463 10.8372 57.6423 11.1852H56.3523Z" fill="white"/>
<path d="M61.9868 13.0812C62.8688 13.0812 63.5768 12.3912 63.5768 11.4972C63.5768 10.6032 62.8688 9.91319 61.9868 9.91319C61.1048 9.91319 60.3968 10.6032 60.3968 11.4972C60.3968 12.3912 61.1048 13.0812 61.9868 13.0812ZM61.9868 12.2052C61.5968 12.2052 61.2968 11.9232 61.2968 11.4972C61.2968 11.0712 61.5968 10.7892 61.9868 10.7892C62.3768 10.7892 62.6768 11.0712 62.6768 11.4972C62.6768 11.9232 62.3768 12.2052 61.9868 12.2052Z" fill="white"/>
<path d="M65.8439 9.91319C65.4479 9.91319 65.1479 10.0572 64.9859 10.2792V9.99719H64.0859V12.9972H64.9859V11.3592C64.9859 10.9332 65.2139 10.7412 65.5439 10.7412C65.8319 10.7412 66.0659 10.9152 66.0659 11.2872V12.9972H66.9659V11.1552C66.9659 10.3452 66.4499 9.91319 65.8439 9.91319Z" fill="white"/>
<path d="M70.8419 10.8612V9.99719H70.2239V9.15719L69.3239 9.42719V9.99719H68.8439V10.8612H69.3239V11.9232C69.3239 12.7632 69.6659 13.1172 70.8419 12.9972V12.1812C70.4459 12.2052 70.2239 12.1812 70.2239 11.9232V10.8612H70.8419Z" fill="white"/>
<path d="M73.1095 9.91319C72.7135 9.91319 72.4135 10.0572 72.2515 10.2792V8.79719H71.3515V12.9972H72.2515V11.3592C72.2515 10.9332 72.4795 10.7412 72.8095 10.7412C73.0975 10.7412 73.3315 10.9152 73.3315 11.2872V12.9972H74.2315V11.1552C74.2315 10.3452 73.7155 9.91319 73.1095 9.91319Z" fill="white"/>
<path d="M75.6535 11.8572H77.7835C77.8075 11.7432 77.8195 11.6232 77.8195 11.4972C77.8195 10.5912 77.1715 9.91319 76.2955 9.91319C75.3475 9.91319 74.6995 10.6032 74.6995 11.4972C74.6995 12.3912 75.3355 13.0812 76.3615 13.0812C76.9315 13.0812 77.3755 12.8712 77.6695 12.4632L76.9495 12.0492C76.8295 12.1812 76.6195 12.2772 76.3735 12.2772C76.0435 12.2772 75.7675 12.1692 75.6535 11.8572ZM75.6355 11.1852C75.7195 10.8792 75.9475 10.7112 76.2895 10.7112C76.5595 10.7112 76.8295 10.8372 76.9255 11.1852H75.6355Z" fill="white"/>
<path d="M41.05 23.9972H42.8L40.42 16.9972H38.38L36 23.9972H37.75L38.1 22.8972H40.7L41.05 23.9972ZM38.58 21.3972L39.4 18.8272L40.22 21.3972H38.58Z" fill="white"/>
<path d="M46.3369 18.8572C45.6669 18.8572 45.1769 19.0872 44.8469 19.4672V18.9972H43.3469V25.9972H44.8469V23.5272C45.1769 23.9072 45.6669 24.1372 46.3369 24.1372C47.6469 24.1372 48.7269 22.9872 48.7269 21.4972C48.7269 20.0072 47.6469 18.8572 46.3369 18.8572ZM46.0369 22.7172C45.3469 22.7172 44.8469 22.2472 44.8469 21.4972C44.8469 20.7472 45.3469 20.2772 46.0369 20.2772C46.7269 20.2772 47.2269 20.7472 47.2269 21.4972C47.2269 22.2472 46.7269 22.7172 46.0369 22.7172Z" fill="white"/>
<path d="M52.5673 18.8572C51.8973 18.8572 51.4073 19.0872 51.0773 19.4672V18.9972H49.5773V25.9972H51.0773V23.5272C51.4073 23.9072 51.8973 24.1372 52.5673 24.1372C53.8773 24.1372 54.9573 22.9872 54.9573 21.4972C54.9573 20.0072 53.8773 18.8572 52.5673 18.8572ZM52.2673 22.7172C51.5773 22.7172 51.0773 22.2472 51.0773 21.4972C51.0773 20.7472 51.5773 20.2772 52.2673 20.2772C52.9573 20.2772 53.4573 20.7472 53.4573 21.4972C53.4573 22.2472 52.9573 22.7172 52.2673 22.7172Z" fill="white"/>
<path d="M55.8078 23.9972H57.3078V16.6972H55.8078V23.9972Z" fill="white"/>
<path d="M59.7455 22.0972H63.2955C63.3355 21.9072 63.3555 21.7072 63.3555 21.4972C63.3555 19.9872 62.2755 18.8572 60.8155 18.8572C59.2355 18.8572 58.1555 20.0072 58.1555 21.4972C58.1555 22.9872 59.2155 24.1372 60.9255 24.1372C61.8755 24.1372 62.6155 23.7872 63.1055 23.1072L61.9055 22.4172C61.7055 22.6372 61.3555 22.7972 60.9455 22.7972C60.3955 22.7972 59.9355 22.6172 59.7455 22.0972ZM59.7155 20.9772C59.8555 20.4672 60.2355 20.1872 60.8055 20.1872C61.2555 20.1872 61.7055 20.3972 61.8655 20.9772H59.7155Z" fill="white"/>
<path d="M69.2062 24.1372C70.7262 24.1372 71.8063 23.3372 71.8063 21.9872C71.8063 20.5072 70.6163 20.1372 69.5563 19.8172C68.4663 19.4872 68.2962 19.2672 68.2962 18.9472C68.2962 18.6672 68.5462 18.4172 69.0462 18.4172C69.6862 18.4172 70.0162 18.7272 70.2562 19.2272L71.6063 18.4372C71.0963 17.4072 70.1962 16.8572 69.0462 16.8572C67.8362 16.8572 66.6963 17.6372 66.6963 18.9872C66.6963 20.3272 67.7162 20.8272 68.7562 21.1172C69.8062 21.4072 70.2062 21.5772 70.2062 22.0072C70.2062 22.2772 70.0162 22.5772 69.2562 22.5772C68.4662 22.5772 68.0362 22.1872 67.7862 21.6072L66.4062 22.4072C66.7963 23.4372 67.7362 24.1372 69.2062 24.1372Z" fill="white"/>
<path d="M75.3394 20.4372V18.9972H74.3094V17.5972L72.8094 18.0472V18.9972H72.0094V20.4372H72.8094V22.2072C72.8094 23.6072 73.3794 24.1972 75.3394 23.9972V22.6372C74.6794 22.6772 74.3094 22.6372 74.3094 22.2072V20.4372H75.3394Z" fill="white"/>
<path d="M78.491 24.1372C79.961 24.1372 81.141 22.9872 81.141 21.4972C81.141 20.0072 79.961 18.8572 78.491 18.8572C77.021 18.8572 75.841 20.0072 75.841 21.4972C75.841 22.9872 77.021 24.1372 78.491 24.1372ZM78.491 22.6772C77.841 22.6772 77.341 22.2072 77.341 21.4972C77.341 20.7872 77.841 20.3172 78.491 20.3172C79.141 20.3172 79.641 20.7872 79.641 21.4972C79.641 22.2072 79.141 22.6772 78.491 22.6772Z" fill="white"/>
<path d="M83.4895 19.8872V18.9972H81.9895V23.9972H83.4895V21.7372C83.4895 20.7472 84.3695 20.4972 84.9895 20.5972V18.8972C84.3595 18.8972 83.6895 19.2172 83.4895 19.8872Z" fill="white"/>
<path d="M86.8841 22.0972H90.4341C90.4741 21.9072 90.4941 21.7072 90.4941 21.4972C90.4941 19.9872 89.4141 18.8572 87.9541 18.8572C86.3741 18.8572 85.2941 20.0072 85.2941 21.4972C85.2941 22.9872 86.3541 24.1372 88.0641 24.1372C89.0141 24.1372 89.7541 23.7872 90.2441 23.1072L89.0441 22.4172C88.8441 22.6372 88.4941 22.7972 88.0841 22.7972C87.5341 22.7972 87.0741 22.6172 86.8841 22.0972ZM86.8541 20.9772C86.9941 20.4672 87.3741 20.1872 87.9441 20.1872C88.3941 20.1872 88.8441 20.3972 89.0041 20.9772H86.8541Z" fill="white"/>
</svg>
