<svg width="16" height="16" viewBox="0 0 16 16" fill="none" xmlns="http://www.w3.org/2000/svg">
<path d="M0.266666 15.4667H1.86667V6.66667C1.86667 6.5194 1.98607 6.4 2.13333 6.4H5.86667V0.266667C5.86667 0.1194 5.98607 0 6.13333 0H13.0667C13.2139 0 13.3333 0.1194 13.3333 0.266667V15.4667H15.7333C15.8806 15.4667 16 15.5861 16 15.7333C16 15.8806 15.8806 16 15.7333 16H0.266666C0.119399 16 -8.34465e-07 15.8806 -8.34465e-07 15.7333C-8.34465e-07 15.5861 0.119399 15.4667 0.266666 15.4667ZM10.4 15.4667H11.4667V13.0667C11.4667 12.9194 11.3473 12.8 11.2 12.8H10.6667C10.5194 12.8 10.4 12.9194 10.4 13.0667V15.4667ZM9.33333 6.66667V15.4667H9.86667V13.0667C9.86667 12.6248 10.2248 12.2667 10.6667 12.2667H11.2C11.6418 12.2667 12 12.6248 12 13.0667V15.4667H12.8V0.533333H6.4V6.4H9.06667C9.21393 6.4 9.33333 6.5194 9.33333 6.66667ZM2.4 15.4667H8.8V6.93333H2.4V15.4667Z" fill="#84829A"/>
<path d="M7.46927 3.73438H9.06927C9.21654 3.73438 9.33594 3.85377 9.33594 4.00104V5.60104C9.33594 5.74831 9.21654 5.86771 9.06927 5.86771H7.46927C7.322 5.86771 7.2026 5.74831 7.2026 5.60104V4.00104C7.2026 3.85377 7.322 3.73438 7.46927 3.73438ZM7.73594 5.33438H8.8026V4.26771H7.73594V5.33438Z" fill="#84829A"/>
<path d="M7.46927 1.07031H9.06927C9.21654 1.07031 9.33594 1.18971 9.33594 1.33698V2.93698C9.33594 3.08425 9.21654 3.20365 9.06927 3.20365H7.46927C7.322 3.20365 7.2026 3.08425 7.2026 2.93698V1.33698C7.2026 1.18971 7.322 1.07031 7.46927 1.07031ZM7.73594 2.67031H8.8026V1.60365H7.73594V2.67031Z" fill="#84829A"/>
<path d="M10.1333 3.73438H11.7333C11.8806 3.73438 12 3.85377 12 4.00104V5.60104C12 5.74831 11.8806 5.86771 11.7333 5.86771H10.1333C9.98607 5.86771 9.86667 5.74831 9.86667 5.60104V4.00104C9.86667 3.85377 9.98607 3.73438 10.1333 3.73438ZM10.4 5.33438H11.4667V4.26771H10.4V5.33438Z" fill="#84829A"/>
<path d="M10.1333 1.07031H11.7333C11.8806 1.07031 12 1.18971 12 1.33698V2.93698C12 3.08425 11.8806 3.20365 11.7333 3.20365H10.1333C9.98607 3.20365 9.86667 3.08425 9.86667 2.93698V1.33698C9.86667 1.18971 9.98607 1.07031 10.1333 1.07031ZM10.4 2.67031H11.4667V1.60365H10.4V2.67031Z" fill="#84829A"/>
<path d="M10.1333 6.39844H11.7333C11.8806 6.39844 12 6.51784 12 6.6651V8.2651C12 8.41237 11.8806 8.53177 11.7333 8.53177H10.1333C9.98607 8.53177 9.86667 8.41237 9.86667 8.2651V6.6651C9.86667 6.51784 9.98607 6.39844 10.1333 6.39844ZM10.4 7.99844H11.4667V6.93177H10.4V7.99844Z" fill="#84829A"/>
<path d="M10.1333 9.07031H11.7333C11.8806 9.07031 12 9.18971 12 9.33698V10.937C12 11.0842 11.8806 11.2036 11.7333 11.2036H10.1333C9.98607 11.2036 9.86667 11.0842 9.86667 10.937V9.33698C9.86667 9.18971 9.98607 9.07031 10.1333 9.07031ZM10.4 10.6703H11.4667V9.60365H10.4V10.6703Z" fill="#84829A"/>
<path d="M5.06927 12.2661H3.46927C3.322 12.2661 3.2026 12.1467 3.2026 11.9995V10.3995C3.2026 10.2522 3.322 10.1328 3.46927 10.1328H5.06927C5.21654 10.1328 5.33594 10.2522 5.33594 10.3995V11.9995C5.33594 12.1467 5.21654 12.2661 5.06927 12.2661ZM4.8026 10.6661H3.73594V11.7328H4.8026V10.6661Z" fill="#84829A"/>
<path d="M5.06927 9.60208H3.46927C3.322 9.60208 3.2026 9.48268 3.2026 9.33542V7.73542C3.2026 7.58815 3.322 7.46875 3.46927 7.46875H5.06927C5.21654 7.46875 5.33594 7.58815 5.33594 7.73542V9.33542C5.33594 9.48268 5.21654 9.60208 5.06927 9.60208ZM4.8026 8.00208H3.73594V9.06875H4.8026V8.00208Z" fill="#84829A"/>
<path d="M5.06927 14.9302H3.46927C3.322 14.9302 3.2026 14.8108 3.2026 14.6635V13.0635C3.2026 12.9163 3.322 12.7969 3.46927 12.7969H5.06927C5.21654 12.7969 5.33594 12.9163 5.33594 13.0635V14.6635C5.33594 14.8108 5.21654 14.9302 5.06927 14.9302ZM4.8026 13.3302H3.73594V14.3969H4.8026V13.3302Z" fill="#84829A"/>
<path d="M7.73333 12.2661H6.13333C5.98607 12.2661 5.86667 12.1467 5.86667 11.9995V10.3995C5.86667 10.2522 5.98607 10.1328 6.13333 10.1328H7.73333C7.8806 10.1328 8 10.2522 8 10.3995V11.9995C8 12.1467 7.8806 12.2661 7.73333 12.2661ZM7.46667 10.6661H6.4V11.7328H7.46667V10.6661Z" fill="#84829A"/>
<path d="M7.73333 9.60208H6.13333C5.98607 9.60208 5.86667 9.48268 5.86667 9.33542V7.73542C5.86667 7.58815 5.98607 7.46875 6.13333 7.46875H7.73333C7.8806 7.46875 8 7.58815 8 7.73542V9.33542C8 9.48268 7.8806 9.60208 7.73333 9.60208ZM7.46667 8.00208H6.4V9.06875H7.46667V8.00208Z" fill="#84829A"/>
<path d="M7.73333 14.9302H6.13333C5.98607 14.9302 5.86667 14.8108 5.86667 14.6635V13.0635C5.86667 12.9163 5.98607 12.7969 6.13333 12.7969H7.73333C7.8806 12.7969 8 12.9163 8 13.0635V14.6635C8 14.8108 7.8806 14.9302 7.73333 14.9302ZM7.46667 13.3302H6.4V14.3969H7.46667V13.3302Z" fill="#84829A"/>
</svg>
