<svg width="92" height="78" viewBox="0 0 92 78" fill="none" xmlns="http://www.w3.org/2000/svg">
<path d="M92 60C92 69.9411 83.9411 78 74 78L47 78C44.2386 78 42 75.7614 42 73L42 39C42 33.4772 46.4772 29 52 29L87 29C89.7614 29 92 31.2386 92 34L92 60Z" fill="#FFF1DA"/>
<path d="M23.5266 50.6538L21.6385 49.75L10.4219 66.3346H22.9398L24.1461 65.5481V51.2215L23.5266 50.6538Z" fill="#407093"/>
<path d="M21.8067 49.837L17.5616 47.8047H16.7615L4.75781 65.5533L5.47244 66.3399H10.6455L21.8067 49.837Z" fill="#365E7D"/>
<path d="M26.3984 65.5547H9.84595C9.094 65.5547 8.48438 66.1642 8.48438 66.9163V68.6417C8.48438 69.3935 9.09387 70.003 9.84568 70.0031H26.3984C27.1504 70.0031 27.76 69.3936 27.76 68.6417V66.9163C27.76 66.1642 27.1504 65.5547 26.3984 65.5547V65.5547Z" fill="#4A80AA"/>
<path d="M8.76775 68.6416V66.9163C8.76775 66.1643 9.37738 65.5547 10.1293 65.5547H1.36158C0.609627 65.5547 0 66.1642 0 66.9163V68.6416C0 69.3936 0.609627 70.0031 1.36158 70.0031H10.1292C9.37724 70.0031 8.76775 69.3936 8.76775 68.6416V68.6416Z" fill="#407093"/>
<path d="M21.2428 39.9844C20.7332 41.0355 20.4453 42.214 20.4453 43.4607C20.4453 46.8676 22.5787 49.7738 25.5813 50.9235C26.8704 50.5196 28.0158 49.791 28.9206 48.8318V47.091L21.2428 39.9844Z" fill="#4A80AA"/>
<path d="M20.5782 43.4874C20.5782 42.2695 20.8598 41.1184 21.3584 40.092L18.9042 37.8203H17.9083C16.4024 39.241 15.4609 41.2536 15.4609 43.4873C15.4609 47.7904 18.9492 51.2786 23.2522 51.2786C24.1486 51.2786 25.0081 51.1248 25.8093 50.846C22.7643 49.7867 20.5782 46.8932 20.5782 43.4874V43.4874Z" fill="#407093"/>
<path d="M65.8135 0.924695C64.5806 -0.308232 62.5816 -0.308232 61.3488 0.924695L58.3359 3.93756V4.31941L62.0964 8.23954L62.8006 8.40223L65.8133 5.38937C67.0464 4.15658 67.0464 2.15762 65.8135 0.924695V0.924695Z" fill="#FFD086"/>
<path d="M66.6464 2.41492C66.5148 1.86915 66.2395 1.35085 65.8135 0.924695C64.5806 -0.308232 62.5816 -0.308232 61.3488 0.924695L58.3359 3.93756V4.31941L60.3297 6.3978C61.5183 5.16091 62.6985 3.94029 63.3054 3.3334C64.3171 2.32182 65.7947 2.31403 66.6464 2.41492V2.41492Z" fill="#FFC365"/>
<path d="M55.499 8.95392C55.4645 8.95392 55.4295 8.95215 55.3943 8.94873L20.5779 5.52175C19.9972 5.4646 19.573 4.94767 19.6302 4.36702C19.6873 3.78638 20.2045 3.36242 20.7849 3.41915L55.6013 6.846C56.1818 6.90315 56.6062 7.42008 56.549 8.00072C56.4953 8.54637 56.0358 8.95392 55.499 8.95392Z" fill="#365E7D"/>
<path d="M30.6496 15.4673C30.1811 15.4673 29.753 15.1531 29.6286 14.6787C29.4805 14.1143 29.8181 13.5368 30.3823 13.3887L55.2324 6.87068C55.7966 6.72289 56.3742 7.06017 56.5222 7.62455C56.6702 8.18878 56.3328 8.76628 55.7685 8.91435L30.9184 15.4324C30.8284 15.4559 30.7382 15.4673 30.6496 15.4673V15.4673Z" fill="#407093"/>
<path d="M62.2499 47.1379C61.7128 47.1379 61.2533 46.7299 61.1998 46.1841L57.7941 11.3464C57.7374 10.7658 58.1621 10.2491 58.7427 10.1922C59.3233 10.138 59.84 10.5602 59.8967 11.1409L63.3024 45.9786C63.3591 46.5591 62.9345 47.0759 62.3538 47.1328C62.319 47.1361 62.2842 47.1379 62.2499 47.1379Z" fill="#365E7D"/>
<path d="M52.2291 37.2468C52.1396 37.2468 52.0485 37.2351 51.9577 37.2112C51.3938 37.0616 51.0579 36.4833 51.2074 35.9194L57.8215 10.9733C57.9709 10.4092 58.5491 10.0739 59.1132 10.2229C59.6771 10.3724 60.0131 10.9508 59.8635 11.5147L53.2495 36.4608C53.1241 36.9341 52.6966 37.2468 52.2291 37.2468V37.2468Z" fill="#407093"/>
<path d="M55.3047 6.96094L58.3252 3.9404L62.7892 8.40446L59.7687 11.425L55.3047 6.96094Z" fill="#FFC365"/>
<path d="M57.5998 9.24573C58.3258 8.48557 59.4594 7.29995 60.5559 6.15999L58.3336 3.9375L55.3125 6.95843L57.5998 9.24573Z" fill="#FFA90F"/>
<path d="M60.4519 13.1487C60.1816 13.1487 59.9111 13.0455 59.705 12.8393L53.8954 7.02988C53.4828 6.61726 53.4828 5.94857 53.8954 5.53582C54.3079 5.12348 54.9767 5.12348 55.3893 5.53582L61.1989 11.3453C61.6115 11.7579 61.6115 12.4266 61.1989 12.8393C60.9926 13.0456 60.7223 13.1487 60.4519 13.1487Z" fill="#4A80AA"/>
<path d="M61.1338 49.037L25.763 13.3594C21.0735 23.946 20.2592 35.3107 23.7699 45.1109C33.4654 53.8567 47.9487 55.1997 61.282 49.702L61.1338 49.037Z" fill="#B5DCFF"/>
<path d="M25.9526 13.5493L17.8486 5.375L17.0365 5.45512C11.3268 19.3024 12.994 34.391 22.6706 44.0677C23.2567 44.6538 23.8632 45.2099 24.4876 45.7375C20.4085 35.9491 21.0714 24.3069 25.9526 13.5493V13.5493Z" fill="#8BCAFF"/>
<path d="M64.3661 46.4985L28.4925 10.625C28.1395 10.6794 27.7996 10.8399 27.5278 11.1117L25.9675 12.6722C25.6324 13.0073 25.4657 13.445 25.4609 13.8842L61.2207 49.6439C61.7524 50.1756 62.6144 50.1756 63.1461 49.6439L64.3662 48.4239C64.8978 47.8924 64.8978 47.0302 64.3661 46.4985Z" fill="#DBEDFF"/>
<path d="M26.017 12.7055L27.5448 11.1777C27.8262 10.8963 28.1815 10.7353 28.5482 10.6916L20.2319 2.37534C19.7002 1.84364 18.8382 1.84364 18.3063 2.37534L17.0863 3.59541C16.5546 4.12711 16.5546 4.98912 17.0863 5.52081L25.5195 13.954C25.5084 13.5034 25.6731 13.0493 26.017 12.7055V12.7055Z" fill="#B5DCFF"/>
</svg>
