<svg width="167" height="154" viewBox="0 0 167 154" fill="none" xmlns="http://www.w3.org/2000/svg">
<path d="M47.6016 72.9063C47.6016 82.8474 55.6604 90.9062 65.6016 90.9062L92.6016 90.9062C95.363 90.9062 97.6016 88.6677 97.6016 85.9062L97.6016 51.9062C97.6016 46.3834 93.1244 41.9062 87.6016 41.9063L52.6016 41.9063C49.8401 41.9063 47.6016 44.1448 47.6016 46.9063L47.6016 72.9063Z" fill="#FFF1DA"/>
<path d="M96.1761 86.8466C94.8177 87.1508 93.4947 87.7144 92.2892 88.5018C89.1484 90.5031 87.3211 93.3598 88.208 94.882C89.095 96.4041 92.36 96.0148 95.5008 94.0135C96.7226 93.2539 97.808 92.2831 98.6901 91.1611C99.0995 90.619 99.173 89.9436 98.8778 89.4387L97.7256 87.4613C97.4324 86.9548 96.8244 86.7139 96.1761 86.8466Z" fill="#D5D6DB"/>
<path d="M88.2943 59.8519C87.3094 60.0727 86.3499 60.4815 85.4757 61.0525C83.1988 62.5033 81.8731 64.5747 82.5157 65.6775C83.1583 66.7803 85.5267 66.4977 87.8033 65.0471C88.6892 64.496 89.4762 63.7918 90.116 62.9781C90.4124 62.5852 90.4656 62.0958 90.2516 61.7298L89.4173 60.298C89.205 59.9308 88.7644 59.7558 88.2943 59.8519Z" fill="#D5D6DB"/>
<path d="M75.4789 60.9819C75.2596 60.9574 75.0258 61.0159 74.8231 61.1454L69.4749 64.5536C69.0275 64.8378 68.8485 65.3851 69.0754 65.7763C69.1273 65.866 69.1984 65.9425 69.2846 66.0015L82.4662 75.0864L100.3 63.7218L75.4789 60.9819Z" fill="#029BC5"/>
<path d="M131.858 59.7005L83.3262 90.2526L54.6135 101.678L39.9703 104.589L38.3594 101.852L119.254 51.9049C121.665 50.4101 124.351 49.4925 127.04 49.2454C128.217 49.1435 129.38 49.1827 130.501 49.3615C131.495 49.5122 132.438 49.8029 133.302 50.225C134.266 50.7032 136.1 50.7584 136.695 51.7112C136.697 51.7097 138.099 56.0841 131.858 59.7005V59.7005Z" fill="#E1E6E9"/>
<path d="M83.9676 86.2106L62.9723 119.681C62.7101 120.151 62.8658 120.677 63.3196 120.856C63.5982 120.966 63.9391 120.923 64.2255 120.741L69.5695 117.351C70.5974 116.698 71.5075 115.87 72.2436 114.916L112.96 67.0473L83.9676 86.2106Z" fill="#029BC5"/>
<path d="M30.986 85.0914C30.6358 84.9717 30.219 85.0338 29.8672 85.2578L25.4497 88.0712C24.8478 88.4543 24.608 89.1907 24.9138 89.7164C24.9721 89.8163 25.0478 89.9042 25.1385 89.9767L37.5153 99.889L50.5283 91.7609L30.986 85.0914Z" fill="#029BC5"/>
<path d="M41.6619 101.678L35.0004 111.008C34.9027 111.142 34.9257 111.31 35.0517 111.384C35.1425 111.436 35.2665 111.427 35.3673 111.359L39.4956 108.743C39.5276 108.723 39.5567 108.698 39.5807 108.668L49.3142 96.8337L41.6619 101.678Z" fill="#029BC5"/>
<path d="M129.704 49.7645C128.549 49.579 127.351 49.5394 126.139 49.646C124.958 51.2971 124.203 53.1518 123.95 55.0253C123.931 55.4016 124.234 55.6724 124.627 55.6303C124.75 55.617 124.871 55.5741 124.98 55.5053L132.588 50.661C131.699 50.2224 130.727 49.9206 129.704 49.7645Z" fill="#029BC5"/>
<path d="M113.125 58.6719L118.092 55.5349L122.719 63.4039L117.752 66.5409L113.125 58.6719Z" fill="#D5D6DB"/>
<path d="M109.998 61.782C109.4 62.1612 109.16 62.89 109.464 63.4097L109.957 64.2517C110.28 64.7581 111.02 64.8472 111.608 64.4505C112.168 64.0727 112.393 63.386 112.123 62.879L111.631 62.037C111.327 61.5177 110.597 61.4035 109.998 61.782V61.782Z" fill="#3A556A"/>
<path d="M105.529 64.5555C104.931 64.9346 104.692 65.6634 104.995 66.1831L105.488 67.0251C105.812 67.5316 106.551 67.6206 107.139 67.2239C107.699 66.8461 107.924 66.1594 107.655 65.6524L107.162 64.8104C106.858 64.2913 106.128 64.1771 105.529 64.5555V64.5555Z" fill="#3A556A"/>
<path d="M101.067 67.3297C100.469 67.7094 100.231 68.4373 100.535 68.9565L101.027 69.7985C101.351 70.3049 102.09 70.394 102.678 69.9973C103.238 69.6195 103.464 68.9329 103.194 68.4258L102.701 67.5839C102.398 67.0642 101.666 66.9504 101.067 67.3297V67.3297Z" fill="#3A556A"/>
<path d="M96.5984 70.1031C96.0005 70.4828 95.7622 71.2107 96.0658 71.73L96.5581 72.572C96.8819 73.0784 97.6212 73.1675 98.2095 72.7708C98.7693 72.393 98.9948 71.7063 98.725 71.1993L98.2327 70.3573C97.9285 69.8378 97.197 69.724 96.5984 70.1031V70.1031Z" fill="#3A556A"/>
<path d="M92.1381 72.8763C91.5399 73.2561 91.3014 73.9843 91.6052 74.5038L92.0978 75.3462C92.4014 75.8654 93.1327 75.9791 93.7311 75.6002C94.3294 75.2212 94.5683 74.493 94.2647 73.9737L93.7721 73.1314C93.4692 72.6116 92.7382 72.4971 92.1394 72.8755C92.1389 72.8758 92.1386 72.876 92.1381 72.8763Z" fill="#3A556A"/>
<path d="M87.6694 75.6497C87.0711 76.0295 86.8326 76.7578 87.1364 77.2773L87.629 78.1196C87.9327 78.6389 88.6639 78.7526 89.2623 78.3736C89.8607 77.9946 90.0996 77.2664 89.7959 76.7471L89.3033 75.9048C89.0004 75.3851 88.2694 75.2706 87.6706 75.6489C87.6701 75.6492 87.6696 75.6496 87.6694 75.6497Z" fill="#3A556A"/>
<path d="M83.2084 78.4154C82.6102 78.7952 82.3717 79.5234 82.6755 80.0429L83.1681 80.8852C83.4725 81.4039 84.2041 81.5165 84.8018 81.137C85.3985 80.7582 85.6369 80.0316 85.3347 79.5129L84.8421 78.6706C84.5385 78.151 83.8073 78.0367 83.2084 78.4154Z" fill="#3A556A"/>
<path d="M78.7397 81.1888C78.1414 81.5686 77.9029 82.2968 78.2067 82.8163L78.6993 83.6587C79.0037 84.1774 79.7353 84.29 80.3331 83.9105C80.9298 83.5317 81.1682 82.805 80.8659 82.2864L80.3733 81.444C80.0698 80.9244 79.3385 80.8101 78.7397 81.1888Z" fill="#3A556A"/>
<path d="M74.2787 83.9622C73.6805 84.342 73.442 85.0703 73.7458 85.5897L74.2384 86.432C74.5428 86.9508 75.2744 87.0634 75.8721 86.6839C76.4688 86.3051 76.7072 85.5784 76.405 85.0598L75.9124 84.2175C75.6086 83.698 74.8774 83.5837 74.2787 83.9622Z" fill="#3A556A"/>
<path d="M69.81 86.7356C69.2116 87.1146 68.9727 87.8428 69.2764 88.3621L69.277 88.3632L69.7696 89.2055C70.0741 89.7243 70.8057 89.8369 71.4034 89.4574C72.0001 89.0786 72.2385 88.3519 71.9362 87.8332L71.4436 86.9909C71.1401 86.4713 70.4089 86.3569 69.81 86.7356Z" fill="#3A556A"/>
<path d="M65.3491 89.5091C64.7507 89.8881 64.5118 90.6163 64.8155 91.1355L64.8161 91.1366L65.3087 91.9789C65.6131 92.4977 66.3448 92.6103 66.9425 92.2308C67.5392 91.852 67.7776 91.1253 67.4753 90.6067L66.9827 89.7644C66.6789 89.2449 65.9477 89.1306 65.3491 89.5091Z" fill="#3A556A"/>
</svg>
