<svg width="77" height="66" viewBox="0 0 77 66" fill="none" xmlns="http://www.w3.org/2000/svg">
<path d="M27 48C27 57.9411 35.0589 66 45 66L72 66C74.7614 66 77 63.7614 77 61L77 27C77 21.4772 72.5228 17 67 17L32 17C29.2386 17 27 19.2386 27 22L27 48Z" fill="#FFF1DA"/>
<path d="M50.001 27.8482V22.1518C50.001 21.0351 49.0957 20.1299 47.979 20.1299H45.8004C44.9292 20.1299 44.1563 19.5717 43.8824 18.7448C43.5774 17.8235 43.2068 16.9322 42.7762 16.0763C42.3841 15.2967 42.5342 14.3542 43.1512 13.7371L44.6926 12.1957C45.4822 11.406 45.4822 10.1259 44.6926 9.33622L40.6646 5.30825C39.875 4.51861 38.5948 4.51861 37.8052 5.30825L36.2637 6.8497C35.6466 7.4668 34.7042 7.6168 33.9246 7.22465C33.0687 6.79406 32.1773 6.42344 31.2561 6.11841C30.4291 5.84457 29.871 5.07163 29.871 4.2005V2.02193C29.871 0.905231 28.9657 0 27.849 0H22.1527C21.036 0 20.1307 0.905231 20.1307 2.02193V4.2006C20.1307 5.07173 19.5726 5.84467 18.7456 6.11851C17.8244 6.42354 16.9331 6.79416 16.0771 7.22475C15.2975 7.6169 14.3551 7.4668 13.738 6.8498L12.1965 5.30835C11.4069 4.51871 10.1267 4.51871 9.33708 5.30835L5.30931 9.33632C4.51967 10.126 4.51967 11.4061 5.30931 12.1958L6.85076 13.7372C7.46776 14.3543 7.61786 15.2968 7.22571 16.0764C6.79512 16.9323 6.4245 17.8236 6.11947 18.7449C5.92591 19.3293 5.48315 19.7794 4.93265 19.9932C4.70418 20.0819 4.5577 20.2305 4.30217 20.2305H2.12349C1.00679 20.2305 0.101562 21.1357 0.101562 22.2524V27.7476C0.101562 28.8643 1.00679 29.7695 2.12349 29.7695H4.30217C5.17329 29.7695 5.94623 30.4283 6.22007 31.2552C6.5251 32.1765 6.89573 33.0677 7.32631 33.9237C7.71846 34.7033 7.56836 35.6458 6.95136 36.2629L5.51052 37.8043C4.72088 38.594 4.72088 39.8741 5.51052 40.6638L9.33728 44.4905C10.1269 45.2802 11.4071 45.2802 12.1967 44.4905L13.7382 42.9491C14.3552 42.332 15.2977 42.182 16.0773 42.5741C16.9333 43.0047 18.0258 43.476 18.947 43.781C19.774 44.0548 20.3321 44.8278 20.3321 45.6989V47.8776C20.3321 48.9943 21.2374 49.8995 22.3541 49.8995H27.7486C28.8653 49.8995 29.7706 48.9943 29.7706 47.8776V45.6989C29.7706 45.4434 29.9192 45.2969 30.0079 45.0684C30.2217 44.5179 30.6719 44.0752 31.2562 43.8816C32.1774 43.5766 33.0688 43.2059 33.9247 42.7754C34.7043 42.3832 35.6467 42.5333 36.2638 43.1503L37.8053 44.6917C38.5949 45.4814 39.8751 45.4814 40.6647 44.6917L44.6927 40.6638C45.4823 39.8741 45.4823 38.594 44.6927 37.8043L43.1513 36.2629C42.5343 35.6458 42.3842 34.7033 42.7763 33.9237C43.2069 33.0678 43.5775 32.1765 43.8825 31.2552C44.1564 30.4283 44.9293 29.8701 45.8005 29.8701H47.9791C49.0957 29.8701 50.001 28.9649 50.001 27.8482V27.8482Z" fill="#B6C4CF"/>
<path d="M30.007 45.0676C29.9185 45.296 29.8702 45.5435 29.8702 45.799V47.9771C29.8702 49.0938 28.9648 49.9992 27.8481 49.9992H22.1519C21.0352 49.9992 20.1298 49.0938 20.1298 47.9771V45.799C20.1298 44.9278 19.5714 44.1542 18.7445 43.8805C17.8239 43.5757 16.9326 43.2055 16.0765 42.7749C15.2968 42.3825 14.3541 42.5324 13.7374 43.1491L12.1962 44.6904C11.4064 45.4801 10.1258 45.4801 9.33602 44.6904L5.30785 40.6632C4.51911 39.8735 4.51911 38.5928 5.30785 37.8031L6.8501 36.2618C7.4668 35.6451 7.6167 34.7025 7.22435 33.9228C6.79376 33.0666 6.42354 32.1753 6.11871 31.2548C5.84507 30.4278 5.07143 29.8695 4.2002 29.8695H2.02213C0.905433 29.8695 0 28.964 0 27.8473V22.1511C0 21.0344 0.905433 20.129 2.02213 20.129H4.2002C4.45573 20.129 4.70322 20.0807 4.93159 19.9922C4.92958 20.1179 4.92857 20.2447 4.92857 20.3715C4.92857 34.0123 15.9869 45.0707 29.6278 45.0707C29.7545 45.0707 29.8813 45.0697 30.007 45.0676V45.0676Z" fill="#9FACBA"/>
<path d="M24.998 41.5976C34.1657 41.5976 41.5976 34.1657 41.5976 24.998C41.5976 15.8303 34.1657 8.39844 24.998 8.39844C15.8303 8.39844 8.39844 15.8303 8.39844 24.998C8.39844 34.1657 15.8303 41.5976 24.998 41.5976Z" fill="#9FACBA"/>
<path d="M25.0003 38.0788C32.2234 38.0788 38.0788 32.2234 38.0788 25.0003C38.0788 17.7773 32.2234 11.9219 25.0003 11.9219C17.7773 11.9219 11.9219 17.7773 11.9219 25.0003C11.9219 32.2234 17.7773 38.0788 25.0003 38.0788Z" fill="#F8F7F7"/>
</svg>
