<svg width="107" height="35" viewBox="0 0 107 35" fill="none" xmlns="http://www.w3.org/2000/svg">
<rect width="107" height="35" rx="17.5" fill="#080809"/>
<g clip-path="url(#clip0_1256_8033)">
<path d="M28.507 16.9994L18.4634 26.6706C17.9931 26.3492 17.7139 25.8145 17.7188 25.2449V8.75382C17.7139 8.18419 17.9931 7.64955 18.4634 7.32812L28.507 16.9994Z" fill="#2196F3"/>
<path d="M32.0188 13.6236L28.5045 17.0018L18.4609 7.33053C18.4988 7.3012 18.5382 7.27392 18.579 7.2488C19.1098 6.92708 19.7728 6.9167 20.3135 7.22156L32.0188 13.6236Z" fill="#4CAF50"/>
<path d="M36.2811 17.0031C36.2877 17.6462 35.9382 18.2402 35.373 18.5469L32.0221 20.3812L28.5078 17.0031L32.0221 13.625L35.373 15.4593C35.9382 15.7661 36.2877 16.3601 36.2811 17.0031Z" fill="#F0BB1F"/>
<path d="M32.0188 20.3781L20.3135 26.7802C19.7716 27.0803 19.1111 27.07 18.579 26.753C18.5382 26.7278 18.4988 26.7006 18.4609 26.6712L28.5045 17L32.0188 20.3781Z" fill="#F15A2B"/>
</g>
<path d="M48.0262 11.8811H45.2182V13.0011H46.7142C46.5142 13.5371 46.0262 13.8651 45.2822 13.8651C44.1942 13.8651 43.5222 13.1691 43.5222 12.2171C43.5222 11.2331 44.2262 10.5371 45.1702 10.5371C45.8022 10.5371 46.3062 10.8251 46.5382 11.1931L47.6262 10.5691C47.1542 9.81706 46.2502 9.28906 45.1782 9.28906C43.5302 9.28906 42.2422 10.5851 42.2422 12.2091C42.2422 13.8171 43.5062 15.1131 45.2662 15.1131C46.8342 15.1131 48.0262 14.0731 48.0262 12.3611V11.8811Z" fill="white"/>
<path d="M49.6278 13.7691V12.7771H51.6278V11.5611H49.6278V10.6331H51.8278V9.40106H48.3478V15.0011H51.8678V13.7691H49.6278Z" fill="white"/>
<path d="M55.95 9.40106H51.79V10.6331H53.23V15.0011H54.51V10.6331H55.95V9.40106Z" fill="white"/>
<path d="M57.7103 9.40106V15.0011H58.9903V9.40106H57.7103Z" fill="white"/>
<path d="M63.3125 9.40106H59.1525V10.6331H60.5925V15.0011H61.8725V10.6331H63.3125V9.40106Z" fill="white"/>
<path d="M67.7448 15.1131C69.3528 15.1131 70.6568 13.8491 70.6568 12.2011C70.6568 10.5531 69.3528 9.28906 67.7448 9.28906C66.1368 9.28906 64.8328 10.5531 64.8328 12.2011C64.8328 13.8491 66.1368 15.1131 67.7448 15.1131ZM67.7448 13.8651C66.8328 13.8651 66.1128 13.2011 66.1128 12.2011C66.1128 11.2011 66.8328 10.5371 67.7448 10.5371C68.6568 10.5371 69.3768 11.2011 69.3768 12.2011C69.3768 13.2011 68.6568 13.8651 67.7448 13.8651Z" fill="white"/>
<path d="M74.0975 9.40106V12.4411L71.9375 9.40106H70.9775V15.0011H72.2575V11.9611L74.4175 15.0011H75.3775V9.40106H74.0975Z" fill="white"/>
<path d="M48.0262 21.3931V21.6091C48.0262 22.3077 47.7782 22.8971 47.2822 23.3771C46.7862 23.8517 46.1329 24.0891 45.3222 24.0891C44.4689 24.0891 43.7649 23.8117 43.2102 23.2571C42.6555 22.6971 42.3782 22.0117 42.3782 21.2011C42.3782 20.3904 42.6529 19.7077 43.2022 19.1531C43.7515 18.5931 44.4475 18.3131 45.2902 18.3131C45.8022 18.3131 46.2715 18.4357 46.6982 18.6811C47.1302 18.9264 47.4635 19.2544 47.6982 19.6651L47.3222 19.8891C47.1355 19.5371 46.8582 19.2544 46.4902 19.0411C46.1275 18.8277 45.7275 18.7211 45.2902 18.7211C44.5649 18.7211 43.9675 18.9611 43.4982 19.4411C43.0342 19.9157 42.8022 20.5024 42.8022 21.2011C42.8022 21.8997 43.0369 22.4891 43.5062 22.9691C43.9755 23.4437 44.5809 23.6811 45.3222 23.6811C45.9782 23.6811 46.5089 23.5024 46.9142 23.1451C47.3195 22.7877 47.5462 22.3371 47.5942 21.7931H45.2182V21.3931H48.0262Z" fill="white"/>
<path d="M53.7048 23.2491C53.1448 23.8091 52.4621 24.0891 51.6568 24.0891C50.8515 24.0891 50.1688 23.8091 49.6088 23.2491C49.0488 22.6837 48.7688 22.0011 48.7688 21.2011C48.7688 20.4011 49.0488 19.7211 49.6088 19.1611C50.1688 18.5957 50.8515 18.3131 51.6568 18.3131C52.4621 18.3131 53.1448 18.5957 53.7048 19.1611C54.2648 19.7211 54.5448 20.4011 54.5448 21.2011C54.5448 22.0011 54.2648 22.6837 53.7048 23.2491ZM49.9048 22.9611C50.3848 23.4411 50.9688 23.6811 51.6568 23.6811C52.3448 23.6811 52.9261 23.4411 53.4008 22.9611C53.8808 22.4757 54.1208 21.8891 54.1208 21.2011C54.1208 20.5131 53.8808 19.9291 53.4008 19.4491C52.9261 18.9637 52.3448 18.7211 51.6568 18.7211C50.9688 18.7211 50.3848 18.9637 49.9048 19.4491C49.4301 19.9291 49.1928 20.5131 49.1928 21.2011C49.1928 21.8891 49.4301 22.4757 49.9048 22.9611Z" fill="white"/>
<path d="M60.2361 23.2491C59.6761 23.8091 58.9934 24.0891 58.1881 24.0891C57.3827 24.0891 56.7001 23.8091 56.1401 23.2491C55.5801 22.6837 55.3001 22.0011 55.3001 21.2011C55.3001 20.4011 55.5801 19.7211 56.1401 19.1611C56.7001 18.5957 57.3827 18.3131 58.1881 18.3131C58.9934 18.3131 59.6761 18.5957 60.2361 19.1611C60.7961 19.7211 61.0761 20.4011 61.0761 21.2011C61.0761 22.0011 60.7961 22.6837 60.2361 23.2491ZM56.4361 22.9611C56.9161 23.4411 57.5001 23.6811 58.1881 23.6811C58.8761 23.6811 59.4574 23.4411 59.9321 22.9611C60.4121 22.4757 60.6521 21.8891 60.6521 21.2011C60.6521 20.5131 60.4121 19.9291 59.9321 19.4491C59.4574 18.9637 58.8761 18.7211 58.1881 18.7211C57.5001 18.7211 56.9161 18.9637 56.4361 19.4491C55.9614 19.9291 55.7241 20.5131 55.7241 21.2011C55.7241 21.8891 55.9614 22.4757 56.4361 22.9611Z" fill="white"/>
<path d="M67.4793 21.3931V21.6091C67.4793 22.3077 67.2313 22.8971 66.7353 23.3771C66.2393 23.8517 65.586 24.0891 64.7753 24.0891C63.922 24.0891 63.218 23.8117 62.6633 23.2571C62.1086 22.6971 61.8313 22.0117 61.8313 21.2011C61.8313 20.3904 62.106 19.7077 62.6553 19.1531C63.2046 18.5931 63.9006 18.3131 64.7433 18.3131C65.2553 18.3131 65.7246 18.4357 66.1513 18.6811C66.5833 18.9264 66.9166 19.2544 67.1513 19.6651L66.7753 19.8891C66.5886 19.5371 66.3113 19.2544 65.9433 19.0411C65.5806 18.8277 65.1806 18.7211 64.7433 18.7211C64.018 18.7211 63.4206 18.9611 62.9513 19.4411C62.4873 19.9157 62.2553 20.5024 62.2553 21.2011C62.2553 21.8997 62.49 22.4891 62.9593 22.9691C63.4286 23.4437 64.034 23.6811 64.7753 23.6811C65.4313 23.6811 65.962 23.5024 66.3673 23.1451C66.7726 22.7877 66.9993 22.3371 67.0473 21.7931H64.6713V21.3931H67.4793Z" fill="white"/>
<path d="M68.9659 23.6011H71.6059V24.0011H68.5419V18.4011H68.9659V23.6011Z" fill="white"/>
<path d="M72.9112 23.6011H75.7113V24.0011H72.4872V18.4011H75.6712V18.8011H72.9112V20.9771H75.4712V21.3771H72.9112V23.6011Z" fill="white"/>
<path d="M80.7897 18.4011C81.291 18.4011 81.707 18.5664 82.0377 18.8971C82.3684 19.2277 82.5337 19.6411 82.5337 20.1371C82.5337 20.6331 82.3684 21.0464 82.0377 21.3771C81.707 21.7024 81.291 21.8651 80.7897 21.8651H79.3097V24.0011H78.8857V18.4011H80.7897ZM80.7897 21.4651C81.1737 21.4651 81.4884 21.3397 81.7337 21.0891C81.9844 20.8384 82.1097 20.5211 82.1097 20.1371C82.1097 19.7477 81.9844 19.4277 81.7337 19.1771C81.4884 18.9264 81.1737 18.8011 80.7897 18.8011H79.3097V21.4651H80.7897Z" fill="white"/>
<path d="M84.005 23.6011H86.645V24.0011H83.581V18.4011H84.005V23.6011Z" fill="white"/>
<path d="M91.4506 24.0011L90.9066 22.5771H88.0986L87.5546 24.0011H87.1066L89.2826 18.4011H89.7306L91.8986 24.0011H91.4506ZM88.2586 22.1771H90.7546L89.5066 18.9211L88.2586 22.1771Z" fill="white"/>
<path d="M95.8831 18.4011L93.8431 21.6971V24.0011H93.4191V21.6971L91.3791 18.4011H91.8591L93.6351 21.2891L95.4031 18.4011H95.8831Z" fill="white"/>
<defs>
<clipPath id="clip0_1256_8033">
<rect width="20" height="20" fill="white" transform="translate(17 7)"/>
</clipPath>
</defs>
</svg>
