<svg width="14" height="14" viewBox="0 0 14 14" fill="none" xmlns="http://www.w3.org/2000/svg">
<g clip-path="url(#clip0_1256_8165)">
<path d="M13.6538 0.150827C13.2849 0.0428744 4.26183 -0.855475 1.093 3.42567C-0.310442 5.32223 -0.331524 7.9221 1.02267 11.1525C0.679153 11.8655 0.378427 12.6166 0.133346 13.4091C0.0588343 13.6499 0.193611 13.9052 0.434154 13.9795C0.478998 13.9934 0.524415 14 0.569259 14C0.763728 14 0.944278 13.8744 1.00454 13.6787C3.41976 5.87028 11.2687 2.09267 13.6756 1.13834C13.9099 1.0454 14.2229 0.317405 13.6538 0.150827Z" fill="#84829A"/>
<path d="M2.46875 12.1295C3.77515 12.6776 5.08136 12.9585 6.29605 12.9585C7.38785 12.9585 8.40605 12.734 9.28346 12.2788C11.0493 11.3628 12.1283 9.61057 12.4039 7.21108C12.6846 4.76565 13.0341 3.23392 13.3257 2.29688C10.7304 3.49404 5.1656 6.59716 2.46875 12.1295Z" fill="#84829A"/>
</g>
<defs>
<clipPath id="clip0_1256_8165">
<rect width="14" height="14" fill="white"/>
</clipPath>
</defs>
</svg>
