<svg width="167" height="154" viewBox="0 0 167 154" fill="none" xmlns="http://www.w3.org/2000/svg">
<path d="M96.1761 86.8494C94.8177 87.1537 93.4947 87.7172 92.2892 88.5046C89.1484 90.5059 87.3211 93.3627 88.208 94.8848C89.095 96.4069 92.36 96.0176 95.5008 94.0163C96.7226 93.2568 97.808 92.286 98.6901 91.164C99.0995 90.6219 99.173 89.9464 98.8778 89.4415L97.7256 87.4641C97.4324 86.9576 96.8244 86.7167 96.1761 86.8494Z" fill="#D5D6DB"/>
<path d="M88.2943 59.8547C87.3094 60.0755 86.3499 60.4843 85.4757 61.0553C83.1988 62.5061 81.8731 64.5775 82.5157 65.6803C83.1583 66.7831 85.5267 66.5006 87.8033 65.0499C88.6892 64.4989 89.4762 63.7946 90.116 62.981C90.4124 62.588 90.4656 62.0987 90.2516 61.7326L89.4173 60.3008C89.205 59.9337 88.7644 59.7586 88.2943 59.8547Z" fill="#D5D6DB"/>
<path d="M75.4789 60.9848C75.2596 60.9603 75.0258 61.0187 74.8231 61.1482L69.4749 64.5565C69.0275 64.8407 68.8485 65.388 69.0754 65.7792C69.1273 65.8688 69.1984 65.9454 69.2846 66.0044L82.4662 75.0893L100.3 63.7246L75.4789 60.9848Z" fill="#029BC5"/>
<path d="M131.858 59.7034L83.3262 90.2555L54.6135 101.681L39.9703 104.592L38.3594 101.854L119.254 51.9078C121.665 50.4129 124.351 49.4954 127.04 49.2483C128.217 49.1464 129.38 49.1855 130.501 49.3643C131.495 49.515 132.438 49.8058 133.302 50.2278C134.266 50.7061 136.1 50.7612 136.695 51.7141C136.697 51.7125 138.099 56.0869 131.858 59.7034V59.7034Z" fill="#E1E6E9"/>
<path d="M83.9676 86.2134L62.9723 119.683C62.7101 120.154 62.8658 120.68 63.3196 120.859C63.5982 120.969 63.9391 120.926 64.2255 120.744L69.5695 117.354C70.5974 116.701 71.5075 115.873 72.2436 114.919L112.96 67.0502L83.9676 86.2134Z" fill="#029BC5"/>
<path d="M30.986 85.0942C30.6358 84.9745 30.219 85.0366 29.8672 85.2607L25.4497 88.0741C24.8478 88.4571 24.608 89.1936 24.9138 89.7192C24.9721 89.8191 25.0478 89.9071 25.1385 89.9795L37.5153 99.8919L50.5283 91.7638L30.986 85.0942Z" fill="#029BC5"/>
<path d="M41.6619 101.681L35.0004 111.011C34.9027 111.145 34.9257 111.313 35.0517 111.386C35.1425 111.439 35.2665 111.43 35.3673 111.362L39.4956 108.746C39.5276 108.726 39.5567 108.7 39.5807 108.671L49.3142 96.8366L41.6619 101.681Z" fill="#029BC5"/>
<path d="M129.704 49.7673C128.549 49.5819 127.351 49.5423 126.139 49.6489C124.958 51.3 124.203 53.1547 123.95 55.0281C123.931 55.4044 124.234 55.6753 124.627 55.6331C124.75 55.6198 124.871 55.5769 124.98 55.5082L132.588 50.6639C131.699 50.2253 130.727 49.9234 129.704 49.7673Z" fill="#029BC5"/>
<path d="M113.125 58.6747L118.092 55.5378L122.719 63.4068L117.752 66.5437L113.125 58.6747Z" fill="#D5D6DB"/>
<path d="M109.998 61.7849C109.4 62.164 109.16 62.8928 109.464 63.4125L109.957 64.2545C110.28 64.761 111.02 64.85 111.608 64.4533C112.168 64.0755 112.393 63.3889 112.123 62.8818L111.631 62.0398C111.327 61.5206 110.597 61.4063 109.998 61.7849V61.7849Z" fill="#3A556A"/>
<path d="M105.529 64.5583C104.931 64.9375 104.692 65.6662 104.995 66.186L105.488 67.0279C105.812 67.5344 106.551 67.6235 107.139 67.2268C107.699 66.849 107.924 66.1623 107.655 65.6553L107.162 64.8133C106.858 64.2942 106.128 64.1799 105.529 64.5583V64.5583Z" fill="#3A556A"/>
<path d="M101.067 67.3326C100.469 67.7122 100.231 68.4401 100.535 68.9594L101.027 69.8013C101.351 70.3078 102.09 70.3968 102.678 70.0001C103.238 69.6224 103.464 68.9357 103.194 68.4287L102.701 67.5867C102.398 67.067 101.666 66.9533 101.067 67.3326V67.3326Z" fill="#3A556A"/>
<path d="M96.5984 70.106C96.0005 70.4856 95.7622 71.2136 96.0658 71.7328L96.5581 72.5748C96.8819 73.0813 97.6212 73.1703 98.2095 72.7736C98.7693 72.3958 98.9948 71.7092 98.725 71.2021L98.2327 70.3602C97.9285 69.8406 97.197 69.7268 96.5984 70.106V70.106Z" fill="#3A556A"/>
<path d="M92.1381 72.8791C91.5399 73.2589 91.3014 73.9872 91.6052 74.5067L92.0978 75.349C92.4014 75.8683 93.1327 75.982 93.7311 75.603C94.3294 75.224 94.5683 74.4958 94.2647 73.9766L93.7721 73.1342C93.4692 72.6145 92.7382 72.5 92.1394 72.8783C92.1389 72.8786 92.1386 72.8788 92.1381 72.8791Z" fill="#3A556A"/>
<path d="M87.6694 75.6526C87.0711 76.0324 86.8326 76.7606 87.1364 77.2801L87.629 78.1224C87.9327 78.6417 88.6639 78.7554 89.2623 78.3764C89.8607 77.9974 90.0996 77.2693 89.7959 76.75L89.3033 75.9077C89.0004 75.3879 88.2694 75.2734 87.6706 75.6518C87.6701 75.6521 87.6696 75.6524 87.6694 75.6526Z" fill="#3A556A"/>
<path d="M83.2084 78.4182C82.6102 78.798 82.3717 79.5262 82.6755 80.0457L83.1681 80.888C83.4725 81.4068 84.2041 81.5194 84.8018 81.1399C85.3985 80.761 85.6369 80.0344 85.3347 79.5158L84.8421 78.6735C84.5385 78.1538 83.8073 78.0395 83.2084 78.4182Z" fill="#3A556A"/>
<path d="M78.7397 81.1916C78.1414 81.5714 77.9029 82.2997 78.2067 82.8192L78.6993 83.6615C79.0037 84.1803 79.7353 84.2929 80.3331 83.9134C80.9298 83.5345 81.1682 82.8079 80.8659 82.2892L80.3733 81.4469C80.0698 80.9272 79.3385 80.8129 78.7397 81.1916Z" fill="#3A556A"/>
<path d="M74.2787 83.9651C73.6805 84.3449 73.442 85.0731 73.7458 85.5926L74.2384 86.4349C74.5428 86.9537 75.2744 87.0662 75.8721 86.6868C76.4688 86.3079 76.7072 85.5813 76.405 85.0626L75.9124 84.2203C75.6086 83.7009 74.8774 83.5865 74.2787 83.9651Z" fill="#3A556A"/>
<path d="M69.81 86.7385C69.2116 87.1175 68.9727 87.8457 69.2764 88.3649L69.277 88.366L69.7696 89.2084C70.0741 89.7272 70.8057 89.8397 71.4034 89.4603C72.0001 89.0814 72.2385 88.3547 71.9362 87.8361L71.4436 86.9938C71.1401 86.4741 70.4089 86.3598 69.81 86.7385Z" fill="#3A556A"/>
<path d="M65.3491 89.512C64.7507 89.8909 64.5118 90.6191 64.8155 91.1384L64.8161 91.1395L65.3087 91.9818C65.6131 92.5005 66.3448 92.6131 66.9425 92.2336C67.5392 91.8548 67.7776 91.1282 67.4753 90.6095L66.9827 89.7672C66.6789 89.2477 65.9477 89.1334 65.3491 89.512Z" fill="#3A556A"/>
</svg>
