<svg width="480" height="361" viewBox="0 0 480 361" fill="none" xmlns="http://www.w3.org/2000/svg">
<g opacity="0.1">
<mask id="mask0_1256_8098" style="mask-type:alpha" maskUnits="userSpaceOnUse" x="0" y="0" width="480" height="361">
<rect x="479.5" y="0.500021" width="360" height="479" transform="rotate(90 479.5 0.500021)" fill="url(#paint0_linear_1256_8098)" stroke="#6246E5"/>
</mask>
<g mask="url(#mask0_1256_8098)">
<path d="M362.039 328.202C362.039 397.635 305.833 453.92 236.5 453.92C167.167 453.92 110.96 397.635 110.96 328.202C110.96 258.769 167.167 202.484 236.5 202.484C305.833 202.485 362.039 258.77 362.039 328.202Z" stroke="#6246E5"/>
<path d="M390.234 318.243C390.234 395.931 327.345 458.908 249.77 458.908C172.194 458.908 109.304 395.931 109.304 318.243C109.304 240.555 172.193 177.578 249.77 177.578C327.345 177.578 390.234 240.556 390.234 318.243Z" stroke="#6246E5"/>
<path d="M414.281 309.936C414.281 394.961 345.452 463.886 260.549 463.886C175.646 463.886 106.817 394.961 106.816 309.936C106.816 224.91 175.645 155.984 260.549 155.984C345.452 155.984 414.281 224.91 414.281 309.936Z" stroke="#6246E5"/>
<path d="M441.648 301.631C441.648 393.077 367.621 467.207 276.307 467.207C184.992 467.207 110.966 393.076 110.966 301.631C110.966 210.185 184.992 136.055 276.307 136.055C367.621 136.055 441.648 210.185 441.648 301.631Z" stroke="#6246E5"/>
<path d="M468.18 293.747C468.18 391.384 389.141 470.533 291.644 470.533C194.147 470.533 115.108 391.384 115.108 293.747C115.108 196.11 194.147 116.961 291.644 116.961C389.141 116.961 468.18 196.11 468.18 293.747Z" stroke="#6246E5"/>
<path d="M503.008 280.459C503.008 387.727 416.173 474.683 309.059 474.683C201.944 474.682 115.11 387.726 115.109 280.459C115.109 173.191 201.944 86.2345 309.059 86.2344C416.173 86.2344 503.008 173.191 503.008 280.459Z" stroke="#6246E5"/>
</g>
</g>
<defs>
<linearGradient id="paint0_linear_1256_8098" x1="736.035" y1="13.467" x2="487.704" y2="484.066" gradientUnits="userSpaceOnUse">
<stop stop-color="#747DEF"/>
<stop offset="1" stop-color="#5E3BE1"/>
</linearGradient>
</defs>
</svg>
