<svg width="14" height="14" viewBox="0 0 14 14" fill="none" xmlns="http://www.w3.org/2000/svg">
<path d="M12.3449 1.24215L6.02736 7.58298C5.95493 7.54102 5.87877 7.50587 5.79986 7.47798L1.62902 6.06631C1.50289 6.0347 1.39094 5.96185 1.31094 5.85934C1.23095 5.75682 1.1875 5.63051 1.1875 5.50048C1.1875 5.37045 1.23095 5.24414 1.31094 5.14162C1.39094 5.03911 1.50289 4.96626 1.62902 4.93465L11.9774 1.25381C12.045 1.23085 12.1159 1.21902 12.1874 1.21881C12.2408 1.21795 12.294 1.22583 12.3449 1.24215V1.24215Z" fill="#84829A"/>
<path d="M12.7471 2.02375L9.06625 12.3838C9.02566 12.5045 8.94667 12.6086 8.84134 12.6803C8.73601 12.7519 8.61012 12.7871 8.48292 12.7804C8.35425 12.7863 8.22724 12.7494 8.12172 12.6756C8.0162 12.6017 7.93809 12.495 7.89958 12.3721L6.51125 8.20125C6.48336 8.12233 6.44821 8.04617 6.40625 7.97375L12.7588 1.65625C12.7946 1.7768 12.7905 1.90571 12.7471 2.02375V2.02375Z" fill="#84829A"/>
</svg>
