<svg width="46" height="44" viewBox="0 0 46 44" fill="none" xmlns="http://www.w3.org/2000/svg">
<path d="M37.6105 12.9909C38.3018 14.1883 38.2092 15.6141 37.3677 16.7115L18.8939 40.8186C18.1321 41.8127 16.8776 42.3196 15.5948 42.0733C14.3387 41.8318 13.3427 40.9161 12.997 39.6845L10.2635 29.9559L9.97886 28.944L9.24487 28.1915L2.18643 20.96C1.29269 20.0449 0.9977 18.7245 1.41656 17.5158C1.83111 16.321 2.87082 15.4541 4.15272 15.2861L34.267 11.3409C35.6381 11.1609 36.9192 11.7935 37.6105 12.9909Z" fill="white"/>
<path d="M10.2636 29.9577L12.997 39.6863C13.3427 40.9179 14.3386 41.8335 15.5948 42.0751C16.8776 42.3214 18.1321 41.8146 18.8939 40.8204L37.3677 16.7133C38.2092 15.6159 38.3018 14.1901 37.6105 12.9926L9.97889 28.9457L10.2636 29.9577Z" fill="white"/>
<path d="M21.2204 22.4501C21.5016 22.937 21.3352 23.5601 20.8476 23.8416L10.2609 29.9538L9.97618 28.9419L9.24219 28.1894L19.8289 22.0772C20.3165 21.7958 20.9393 21.9631 21.2204 22.4501Z" fill="url(#paint0_linear_1256_8119)"/>
<path d="M10.2672 29.9545L20.8539 23.8422C21.3414 23.5607 21.5079 22.9377 21.2267 22.4507L9.98246 28.9425L10.2672 29.9545Z" fill="url(#paint1_linear_1256_8119)"/>
<defs>
<linearGradient id="paint0_linear_1256_8119" x1="17.405" y1="23.5427" x2="18.5425" y2="25.8236" gradientUnits="userSpaceOnUse">
<stop stop-color="#747DEF"/>
<stop offset="1" stop-color="#5E3BE1"/>
</linearGradient>
<linearGradient id="paint1_linear_1256_8119" x1="17.9063" y1="24.4007" x2="18.5104" y2="25.5249" gradientUnits="userSpaceOnUse">
<stop stop-color="#747DEF"/>
<stop offset="1" stop-color="#5E3BE1"/>
</linearGradient>
</defs>
</svg>
