<svg width="385" height="12" viewBox="0 0 385 12" fill="none" xmlns="http://www.w3.org/2000/svg">
<mask id="mask0_1256_8435" style="mask-type:alpha" maskUnits="userSpaceOnUse" x="0" y="0" width="385" height="12">
<rect width="385" height="12" fill="#C4C4C4"/>
</mask>
<g mask="url(#mask0_1256_8435)">
<path d="M57.8306 -2.53479L58.7715 -2.69296L56.9405 -2.91974L57.8182 -3.08574C58.6984 -3.08422 59.8388 -2.83549 60.4593 -2.96765C60.5351 -3.09562 59.5767 -3.13668 59.3321 -3.23864C59.1157 -3.34314 58.9391 -3.44695 58.8044 -3.54885C59.2837 -3.54775 59.8107 -3.5231 60.354 -3.47636C61.0849 -3.40001 61.8017 -3.3629 62.4254 -3.36911C63.7009 -3.34849 64.9331 -3.36906 66.3198 -3.36453L65.8585 -3.67249L67.6456 -3.60045C67.835 -3.57699 68.0608 -3.61472 68.2469 -3.58569C69.7958 -3.34012 70.4511 -3.47394 71.1946 -3.5849C71.3471 -3.61361 71.5307 -3.63505 71.7407 -3.64865C73.8069 -3.58982 75.67 -3.2456 77.5307 -3.06889C77.881 -3.02377 78.2168 -2.96586 78.5146 -2.89926C79.1618 -2.76978 79.8817 -2.66407 80.6085 -2.59179C81.3353 -2.51952 82.0456 -2.48299 82.6748 -2.48554C84.0659 -2.4884 85.6376 -2.40276 87.2378 -2.2369C87.7137 -2.18227 88.1898 -2.14624 88.636 -2.13109C89.0821 -2.11593 89.4884 -2.12199 89.8289 -2.1489L90.9108 -1.9731C91.3797 -2.04443 91.9744 -2.08357 92.6586 -2.08814C93.3429 -2.0927 94.1025 -2.0626 94.8913 -1.99966C95.7319 -1.93138 96.5857 -1.88535 97.4579 -1.81316C99.2595 -1.67515 101.013 -1.59075 102.664 -1.56257C105.122 -1.47908 107.523 -1.41453 110.003 -1.31043C111.555 -1.26019 113.066 -1.23255 114.529 -1.22767C116.281 -1.20802 118.176 -1.11288 120.123 -0.946845V-0.946845C120.031 -0.791065 119.177 -0.837087 118.604 -0.842359C116.756 -0.868251 114.864 -0.935345 112.962 -0.985747C112.106 -1.00542 111.273 -1.01287 110.468 -1.00805C109.123 -1.01451 107.704 -1.05601 106.238 -1.13186C103.92 -1.21532 101.677 -1.25544 99.5312 -1.25181C99.363 -1.24564 99.2088 -1.2347 99.0713 -1.21919C99.0426 -1.20575 99.037 -1.1888 99.0549 -1.16998C99.0727 -1.15115 99.1136 -1.13107 99.1736 -1.11166C99.2335 -1.09226 99.3104 -1.07417 99.397 -1.05914C99.4837 -1.0441 99.5771 -1.03262 99.6684 -1.0258C100.521 -0.920226 101.436 -0.806839 102.24 -0.790888C102.271 -0.789696 102.304 -0.786974 102.337 -0.782917C102.37 -0.778859 102.401 -0.773569 102.43 -0.767429C104.229 -0.544556 105.709 -0.582271 107.11 -0.546011C109.438 -0.44801 111.681 -0.402234 113.807 -0.409374C114.128 -0.408888 114.475 -0.396149 114.835 -0.371615C117.061 -0.272167 119.143 -0.261043 120.983 -0.33875C121.74 -0.358436 122.444 -0.402631 123.258 -0.40337C123.759 -0.406412 124.195 -0.434614 124.54 -0.486289C124.886 -0.537965 125.132 -0.612044 125.266 -0.704072C125.609 -0.65562 125.958 -0.61244 126.308 -0.575046C126.517 -0.553665 126.717 -0.547986 126.868 -0.559174C127.02 -0.570363 127.111 -0.597582 127.123 -0.635327C127.186 -0.741034 126.709 -0.79412 126.295 -0.839387C126.545 -0.862058 126.826 -0.875394 127.132 -0.879076C128.856 -0.90323 130.705 -0.874722 132.639 -0.794178C134.141 -0.697769 135.34 -0.776239 136.919 -0.640283C137.109 -0.616822 137.265 -0.651256 137.439 -0.659524C137.894 -0.703062 138.46 -0.712848 139.089 -0.688026C139.718 -0.663204 140.39 -0.604522 141.048 -0.51707C141.868 -0.755992 143.638 -0.483045 144.945 -0.458515C145.347 -0.337011 144.885 -0.358372 144.866 -0.324991C144.846 -0.291609 144.865 -0.324998 144.708 -0.344548C143.403 -0.172478 141.615 -0.134957 139.595 -0.23726C139.221 -0.236836 138.865 -0.228997 138.53 -0.213819C138.023 -0.192337 137.451 -0.194482 136.84 -0.22016C136.172 -0.239019 135.558 -0.230062 135.028 -0.193722C134.723 -0.194314 134.466 -0.176109 134.279 -0.140783C134.092 -0.105457 133.982 -0.0541549 133.96 0.00835472C134.163 0.0565438 134.389 0.100638 134.628 0.138886C135.876 0.289904 137.12 0.352414 138.116 0.314117C139.849 0.248132 141.912 0.312524 143.756 0.289997C145.002 0.280871 146.328 0.306865 147.708 0.367493C147.708 0.367493 147.672 0.428692 147.669 0.434255C147.832 0.460753 148.004 0.482012 148.174 0.496818C148.174 0.496818 148.174 0.496818 148.19 0.469C148.115 0.442287 148.012 0.417156 147.894 0.396517L147.484 0.345685C147.763 0.332457 148.024 0.293072 148.314 0.317135C148.927 0.361842 149.512 0.380716 150.035 0.372635C150.558 0.364555 151.008 0.329682 151.358 0.270112C151.978 0.193765 152.749 0.159045 153.621 0.168195C154.29 0.15986 154.934 0.141946 155.551 0.114542C155.551 0.114542 155.59 0.047785 155.882 0.0123028C155.606 -0.0314604 155.317 -0.0671959 155.03 -0.0932643C153.781 -0.158393 152.528 -0.217959 151.301 -0.262487C150.849 -0.267297 150.424 -0.259836 150.034 -0.24025C148.954 -0.217331 147.741 -0.24986 146.465 -0.335941C146.465 -0.335941 146.212 -0.36722 146.086 -0.38286C146.444 -0.529613 147.678 -0.382696 148.178 -0.482081C148.482 -0.480272 149.017 -0.467774 148.998 -0.493939C148.957 -0.528853 148.952 -0.561289 148.984 -0.588918C149.016 -0.616547 149.084 -0.638687 149.184 -0.653748C149.283 -0.668809 149.412 -0.676423 149.56 -0.676036C149.708 -0.675649 149.872 -0.667269 150.04 -0.651508C151.446 -0.566244 152.769 -0.542533 153.93 -0.581828C154.37 -0.581069 154.864 -0.555798 155.3 -0.549476C155.568 -0.541861 155.812 -0.546096 156.019 -0.561947C157.075 -0.67869 158.495 -0.687215 160.066 -0.586244C160.826 -0.549942 161.536 -0.545088 162.159 -0.571928C162.602 -0.576733 162.79 -0.493732 163.106 -0.454632L164.447 -0.372208L162.725 -0.268929C163.093 -0.0322441 163.386 0.045799 163.987 0.0605443C164.864 0.0828118 165.718 0.0928717 166.544 0.0906615C167.155 0.0887162 167.66 0.037744 168.488 0.128278C168.634 0.143045 168.774 0.147824 168.886 0.141815C169.855 0.0614406 171.022 0.0429943 172.307 0.0877357C172.972 -0.0627721 174.105 0.0835607 175.154 0.201465C175.492 0.0880932 174.879 0.036051 174.513 -0.0331238C175.39 -0.0260429 176.274 -0.0300861 177.179 -0.0135317C177.451 -0.0195586 177.762 -0.00924926 178.088 0.0165841C178.414 0.0424175 178.745 0.0830672 179.056 0.135357C179.208 0.169143 179.391 0.194571 179.567 0.206361C179.743 0.21815 179.898 0.2154 180.001 0.198679C180.471 0.149366 181.224 0.194786 181.612 0.111488C181.75 0.0923306 181.947 0.0896563 182.168 0.103932C182.39 0.118208 182.621 0.14851 182.82 0.189407V0.189407C182.602 0.202166 182.408 0.22226 182.242 0.249243C181.648 0.336898 181.866 0.483361 182.621 0.696293C183.78 0.684583 184.964 0.687909 186.038 0.647777C186.637 0.611752 187.371 0.623014 188.157 0.680297C188.943 0.737581 189.751 0.838614 190.489 0.972037C190.756 1.02334 191.06 1.05888 191.341 1.07158C191.623 1.08429 191.86 1.07324 192.007 1.04062C192.098 1.0029 192.126 0.955158 192.089 0.901536L191.332 0.807698C191.332 0.807698 191.361 0.757626 191.368 0.746499L192.457 0.738086C193.034 0.737794 193.635 0.752544 194.179 0.748342C194.98 0.720398 195.893 0.735974 196.863 0.794102C197.758 0.853708 198.638 0.898762 199.494 0.928868C200.323 0.959857 200.924 0.861068 201.713 0.845291C202.309 0.8334 202.965 0.846108 203.656 0.88292C204.849 0.948208 205.944 0.94833 206.841 0.883271C207.887 1.23379 208.396 1.29079 209.367 1.19607L209.823 1.16901L209.948 1.24419L210.297 1.22766C210.95 1.21294 211.602 1.19822 212.283 1.19296C213.23 1.22549 214.252 1.31301 215.25 1.44697C215.439 1.47043 215.697 1.55014 215.864 1.61255C216.03 1.67495 216.393 1.86321 216.659 1.98577C216.369 2.07523 216.047 2.16078 215.817 2.26363C215.793 2.2812 215.796 2.30215 215.823 2.3248C215.851 2.34745 215.903 2.37117 215.975 2.39404C216.047 2.41692 216.137 2.43831 216.239 2.45651C216.34 2.4747 216.449 2.4892 216.558 2.49882C216.77 2.51956 216.98 2.53339 217.178 2.53973C218.153 2.55067 219.088 2.54254 219.971 2.51542C220.294 2.47715 220.736 2.47352 221.226 2.50509C221.717 2.53667 222.229 2.60165 222.68 2.68973C223.837 2.63685 225.18 2.65247 226.618 2.73551C228.139 2.68501 229.976 2.78713 231.397 2.67648C231.364 2.73212 231.511 2.82791 231.715 2.8831C232.039 2.96692 232.405 3.04461 232.799 3.11287L235.804 3.24614C235.916 3.31467 236.057 3.38404 236.223 3.45336C236.338 3.50811 236.536 3.56168 236.778 3.60273C237.019 3.64377 237.284 3.66906 237.516 3.67322C238.114 3.69353 238.616 3.64812 239.329 3.76031C238.231 3.86635 236.75 3.85227 235.15 3.72055C233.647 3.62038 232.201 3.57031 230.867 3.57222C230.426 3.57146 229.847 3.57731 229.709 3.6379C229.404 3.80917 228.607 3.78209 227.677 3.7505C226.946 3.71592 226.279 3.7198 225.73 3.76183C225.181 3.80385 224.765 3.88282 224.518 3.99224C224.455 4.09795 224.605 4.18817 225.246 4.24968L227.913 4.49634C228.306 4.46462 228.679 4.42709 229.03 4.38388C229.622 4.32649 230.352 4.31073 231.165 4.33784C231.978 4.36495 232.85 4.4342 233.716 4.54018C234.157 4.59492 234.599 4.64966 234.92 4.62365C235.201 4.59378 235.46 4.558 235.695 4.5166C235.742 4.48886 235.761 4.45692 235.751 4.42202C235.921 4.43825 236.091 4.45934 236.256 4.48458C237.573 4.77902 238.592 4.77393 239.519 4.69755C239.769 4.67485 239.96 4.63877 240.214 4.6105C240.468 4.58224 240.558 4.54555 240.788 4.55623C242.629 4.65279 243.159 4.33026 244.71 4.34322C244.786 4.33062 244.833 4.31178 244.846 4.28845C244.86 4.26511 244.841 4.23803 244.789 4.20969C244.68 4.18411 244.553 4.1621 244.421 4.1457C244.288 4.1293 244.154 4.11904 244.032 4.11585C243.318 4.07447 242.687 4.08715 242.248 4.15176C241.937 4.17816 241.608 4.19919 241.262 4.21475L239.709 3.74768C241.214 3.79049 242.637 3.79021 243.945 3.74684C244.231 3.72248 244.714 3.76445 245.116 3.77242L248.072 3.81608C248.68 3.8197 249.198 3.74648 250.046 3.91716C250.046 3.91716 250.605 3.94468 250.755 3.92137C250.904 3.89807 251.566 3.75313 251.961 3.6587C252.419 3.68562 253.054 3.75827 253.34 3.73391C253.838 3.67409 254.27 3.5974 254.627 3.50522L256.413 3.63681C256.411 3.75371 256.346 3.86369 256.219 3.96506C256.079 4.06283 256.084 4.18019 256.233 4.30755C256.381 4.4349 256.669 4.56863 257.072 4.69782L258.835 5.38203C259.123 5.42785 259.43 5.45869 259.714 5.47037C259.998 5.48205 260.246 5.47399 260.423 5.4473C261.182 5.36807 262.032 5.30614 262.791 5.2269C263.769 5.34811 263.518 5.54389 264.229 5.71562L266.534 6.00105C266.885 6.26555 267.243 6.51893 266.174 6.60748C265.962 6.62296 266.105 6.72432 265.911 6.76597C266.742 6.96446 267.656 7.02388 268.498 7.14614C268.831 7.23407 269.108 7.32714 269.318 7.42087C269.549 7.56199 270.016 7.70615 270.62 7.82221C271.223 7.93827 271.914 8.01693 272.543 8.04118C273.598 8.11549 274.679 8.22709 275.736 8.37099C276.097 8.42103 276.468 8.45749 276.825 8.47791C277.181 8.49832 277.514 8.50223 277.801 8.48936C278.824 8.46671 279.69 8.38879 280.342 8.26069C280.987 8.15198 281.857 8.09959 282.872 8.10826C284.609 8.32331 284.959 8.64736 286.01 8.93277L284.195 8.96478C284.129 9.07605 284.249 9.21634 283.505 9.21377C282.761 9.21121 283.138 9.31767 283.38 9.42519C283.465 9.47927 283.631 9.53491 283.849 9.58267C284.068 9.63044 284.326 9.66739 284.58 9.6873L286.125 9.82491C286.673 9.87728 287.203 9.89964 287.657 9.88954C288.112 9.87944 288.473 9.83727 288.7 9.76766C288.962 9.70156 289.323 9.65684 289.761 9.63626C290.319 9.58233 290.779 9.50213 291.122 9.39869L293.303 9.5494C293.396 9.44545 293.696 9.37257 294.151 9.34307C294.607 9.31357 295.191 9.32926 295.805 9.38749L297.275 9.47999C298.91 9.58091 299.268 9.54769 299.747 9.25463L297.787 8.73116C298.072 8.59328 298.347 8.47209 298.622 8.3509C298.134 8.17844 297.482 8.01532 296.733 7.87812C296.035 7.73068 295.316 7.58789 294.581 7.45029C293.783 7.30968 292.941 7.18742 291.95 7.02892C291.777 6.97764 291.526 6.88681 291.205 6.79929C290.884 6.71424 290.549 6.63087 290.201 6.54951C290.267 6.43824 290.326 6.3381 290.2 6.20893C290.81 6.25015 291.44 6.32223 292.033 6.41869C292.627 6.51514 293.165 6.63293 293.6 6.76144C293.673 6.78423 293.762 6.80563 293.862 6.82421C293.962 6.84279 294.071 6.8581 294.18 6.86911C295.251 6.94807 295.763 7.11303 296.287 7.31528C296.64 7.41867 297.095 7.51049 297.589 7.57799C298.536 7.69529 299.463 7.84598 300.369 7.97606C300.646 8.01941 300.934 8.05509 301.221 8.08163C302.168 8.16602 303.121 8.28401 304.031 8.42963C304.328 8.46663 304.613 8.51561 304.863 8.57246C305.112 8.6293 305.318 8.69237 305.464 8.75639C305.239 8.82653 305.117 8.91508 305.106 9.01667C305.067 9.08343 305.732 9.21954 306.046 9.31818C306.36 9.41683 305.744 9.37035 305.535 9.38027C304.676 9.39935 304.517 9.43935 305.031 9.65829C305.203 9.72713 305.317 9.79602 305.366 9.86066C305.415 9.9253 305.398 9.98433 305.317 10.0341C305.195 10.2399 304.824 10.4089 304.569 10.6103C304.965 10.7429 305.626 10.8845 305.698 11.0488C305.733 11.0852 305.806 11.1238 305.913 11.1617C306.019 11.1997 306.156 11.2361 306.314 11.2683C306.729 11.3378 307.107 11.4209 307.418 11.5112C307.729 11.6015 307.964 11.6965 308.106 11.7889C308.153 11.8271 308.265 11.8677 308.42 11.9024C308.575 11.9372 308.763 11.9636 308.944 11.9763C309.161 11.9919 309.355 11.9898 309.486 11.9705C309.617 11.9512 309.676 11.9161 309.649 11.8725C309.655 11.7906 309.626 11.7052 309.563 11.6171C309.6 11.5559 309.636 11.4947 309.493 11.3933C310.14 11.4303 310.819 11.5044 311.457 11.6076C312.095 11.7109 312.667 11.8392 313.111 11.9787C313.601 12.1231 314.054 12.2747 314.597 12.4436C314.485 12.6327 314.485 12.6327 315.642 12.9672L321.781 13.1302L323.039 13.3518C324.213 13.5448 324.491 13.5316 325.228 13.4318L325.724 13.338C326.766 13.467 327.966 13.6156 328.618 13.3738C328.829 13.5314 328.967 13.5843 328.919 13.6082C328.608 13.8408 328.068 14.0381 327.319 14.1924C327.128 14.2285 326.994 14.2835 326.772 14.3157C326.055 14.4973 325.888 14.7779 326.307 15.1001C326.514 15.2427 326.816 15.3887 327.202 15.5335C326.637 15.7344 325.889 15.9008 324.977 16.0283C324.203 16.127 323.566 16.2591 323.084 16.4209C322.651 16.584 322.003 16.7067 321.176 16.7818C320.756 16.8137 320.45 16.8767 320.288 16.9645C320.24 17.2021 320.351 17.4565 320.619 17.722C320.669 17.8028 320.812 17.8901 321.037 17.977C321.262 18.0639 321.562 18.1481 321.914 18.2229C321.914 18.2229 322.084 18.2797 322.166 18.3137C322.234 18.6015 321.979 18.8551 321.42 19.0574C321.328 19.1149 321.141 19.1563 320.877 19.1774C320.614 19.1985 320.285 19.1983 319.926 19.177C319.167 19.1427 318.458 19.1384 317.723 19.1192C316.932 19.0919 316.236 19.1134 315.706 19.1813C315.177 19.2492 314.835 19.3611 314.716 19.5051C314.708 19.5459 314.685 19.585 314.647 19.622C314.624 19.641 314.612 19.6615 314.61 19.6832L316.296 20.1547L314.389 20.3425C314.277 20.5317 315.193 20.6451 315.651 20.7855L315.368 20.8639C315.003 20.9082 314.511 20.8234 314.065 20.7742L313.623 20.7195L313.571 20.8085C313.296 20.9297 312.292 20.7934 311.9 20.8823C311.509 20.9712 311.788 21.0715 312.375 21.168C312.783 21.2398 313.221 21.297 313.656 21.3354C314.091 21.3737 314.512 21.3923 314.887 21.3895C315.111 21.38 315.297 21.3583 315.433 21.3258C316.225 21.1872 317.099 21.068 318.05 20.9692C318.779 20.8804 319.692 20.8426 320.725 20.8585C321.028 20.8518 321.394 20.8729 321.758 20.9179C322.121 20.963 322.46 21.0291 322.714 21.1049V21.1049L323.249 21.1173C323.249 21.1173 323.541 21.1954 323.5 21.2082C323.296 21.4394 323.533 21.7221 324.175 22.0143V22.0143L323.617 22.0408C322.819 22.0137 323.325 22.1898 323.206 22.2765C322.639 22.2601 321.903 22.1869 321.635 22.297L321.233 22.289L321.391 22.3085L321.582 22.2725L322.331 22.437C321.976 22.4646 321.719 22.4985 321.405 22.5133C321.232 22.5263 321.094 22.5492 320.999 22.5806C320.905 22.612 320.856 22.6513 320.856 22.6962C320.857 22.7652 320.763 22.8233 320.585 22.8649C320.406 22.9065 320.147 22.9303 319.834 22.9339C319.46 22.9354 319.246 23.0104 319.027 23.037L319.979 23.4894C319.979 23.4894 319.506 23.4307 319.764 23.5104L319.797 23.4548L320.373 23.568C320.789 23.6673 321.08 23.6913 321.325 23.6202C321.57 23.5491 321.515 23.6437 321.632 23.6164C321.589 23.6888 321.322 23.7393 321.093 23.7826C320.829 23.8166 320.53 23.8416 320.202 23.8573C320.793 24.1753 320.821 24.1848 319.958 24.269C319.095 24.3532 319.392 24.4797 318.67 24.4977C317.948 24.5157 318.769 24.7309 319.253 24.7729C319.611 24.8005 319.976 24.8434 320.324 24.8988C320.671 24.9542 320.992 25.0208 321.265 25.0938L321.12 25.3386C320.907 25.3183 320.694 25.292 320.489 25.2604C319.789 25.1259 319.152 24.9993 318.53 25.0775L318.826 25.2635L316.654 25.1557C316.71 25.2951 317.041 25.4539 317.577 25.5985V25.5985C317.496 25.678 317.447 25.7616 317.429 25.8489C317.393 25.9101 317.178 25.8716 317.039 25.8782C316.541 25.8884 316.133 25.9299 315.85 25.999C315.566 26.068 315.417 26.1625 315.414 26.2742C315.358 26.3688 316.123 26.5651 316.602 26.5586C317.796 26.5775 319.087 26.6502 320.405 26.7729C321.209 26.7889 321.323 26.5402 322.645 26.71C322.672 26.8248 322.502 26.9178 322.163 26.9749C321.823 27.0319 321.332 27.05 320.764 27.0263C321.087 27.2813 322.877 27.3478 322.957 27.6144C322.511 27.5956 322.034 27.5513 321.573 27.4859C321.113 27.4205 320.685 27.3362 320.331 27.2415C320.255 27.2181 320.159 27.1966 320.052 27.1789C319.946 27.1612 319.832 27.1479 319.722 27.1402C319.612 27.1324 319.508 27.1306 319.421 27.1348C319.334 27.139 319.267 27.1491 319.225 27.1642C319.473 27.2606 319.745 27.372 320.056 27.4762C320.367 27.5804 320.442 27.6255 320.667 27.6473C322.34 27.8546 323.135 28.2278 324.583 28.4728C324.962 28.5197 325.009 28.6689 324.68 28.652C324.367 28.6351 324.084 28.6373 323.862 28.6584C323.64 28.6794 323.488 28.7184 323.423 28.7711C323.18 28.8325 322.878 28.8814 322.524 28.9165C324.008 29.2995 325.778 29.6379 327.668 29.8999C328.026 29.9517 328.399 29.9833 328.733 29.99C329.788 29.9904 330.907 30.0208 332.068 30.0806C332.48 30.0969 332.86 30.0954 333.189 30.0761C334.266 30.0304 335.122 30.1304 335.904 30.4124L337.198 30.8593C337.155 30.9316 336.938 31.0122 336.771 31.1229L337.781 31.3615L345.494 30.8119L347.043 31.3441L349.263 31.3145C349.433 31.3299 349.604 31.351 349.768 31.377C350.217 31.5342 350.568 31.6852 351.056 31.8351C351.543 31.985 352.413 32.0032 353.02 32.1799C353.627 32.3566 354.235 32.3602 354.986 32.4652C355.056 32.602 354.983 32.7251 354.771 32.8268C354.702 32.9437 354.321 33.0158 354.255 33.1271C354.262 33.2396 354.12 33.335 353.842 33.4049C353.564 33.4747 353.158 33.5167 352.662 33.5271C351.272 33.7665 349.597 33.937 347.686 34.0334C347.518 34.0404 347.378 34.0566 347.277 34.081C347.175 34.1053 347.112 34.1374 347.093 34.1751C347.096 34.2842 346.968 34.3785 346.72 34.4511C346.472 34.5237 346.109 34.5727 345.659 34.5946C345.539 34.5989 345.448 34.6126 345.398 34.634C345.227 34.6477 345.103 34.674 345.036 34.7103C344.97 34.7466 344.965 34.7918 345.021 34.8413C345.077 34.8908 345.192 34.9431 345.355 34.9931C345.518 35.0431 345.724 35.0891 345.953 35.1267C346.285 35.1872 346.624 35.2452 346.969 35.3003C346.949 35.3336 346.607 35.339 346.657 35.3691C346.792 35.4651 346.823 35.555 346.748 35.6318C346.673 35.7086 346.494 35.77 346.225 35.8113L348.069 36.5891C349.188 36.6968 350.285 36.8795 351.153 37.1025C351.154 37.139 351.104 37.1696 351.008 37.1913C350.912 37.2129 350.773 37.2248 350.606 37.2258C350.156 37.2417 349.731 37.2727 349.246 37.2903C348.949 37.3034 348.703 37.3323 348.52 37.3753C348.338 37.4183 348.223 37.4746 348.182 37.5408L349.265 37.8301C348.918 37.9006 348.661 37.9344 348.432 37.9777C348.561 38.0686 348.785 38.1627 349.084 38.2526C349.383 38.3425 349.751 38.4258 350.158 38.4961C350.267 38.5106 350.378 38.5212 350.485 38.5272C350.592 38.5333 350.693 38.5347 350.781 38.5314C351.619 38.4322 352.599 38.6074 353.552 38.7731C354.504 38.9388 355.021 39.0387 355.724 39.1676L357.069 39.1849C357.41 39.2459 357.714 39.3176 357.956 39.3944C358.199 39.4711 358.374 39.5507 358.468 39.6268C358.395 39.7492 357.757 39.6821 357.377 39.6948C356.475 39.7709 355.289 39.7547 354.016 39.6487C353.7 39.6096 353.376 39.6412 353.069 39.6449C352.406 39.6601 351.769 39.6849 351.161 39.7192C350.761 39.751 350.386 39.7905 350.041 39.8372C349.948 39.993 351.402 40.1133 350.577 40.1903C350.861 40.2255 350.968 40.2745 351.114 40.2567C352.05 40.3579 352.972 40.4079 353.773 40.401C355.311 40.3795 357.057 40.4505 358.869 40.6081C360.825 40.7714 362.7 40.84 364.342 40.8082C364.967 40.8063 365.666 40.8398 366.385 40.906C367.234 40.9977 368.077 41.0553 368.86 41.0752C369.119 41.0759 369.408 41.0915 369.703 41.1207C369.997 41.15 370.29 41.192 370.556 41.2435V41.2435C370.533 41.2824 370.279 41.3107 370.336 41.3296C371.146 41.621 371.474 41.9245 372.721 42.2222C373.574 42.3278 374.552 42.449 375.11 42.309C375.667 42.169 375.467 42.0488 374.358 41.6904C374.599 41.6852 374.889 41.702 375.177 41.7377C375.466 41.7734 375.734 41.8259 375.936 41.8859L376.896 42.154L377.76 42.4104C377.685 42.5384 377.625 42.6385 377.563 42.7442C377.464 42.8565 377.572 42.9932 377.873 43.135C378.055 43.2125 378.213 43.29 378.346 43.3668C378.886 43.6739 379.043 43.9642 378.798 44.2051C378.328 44.5514 377.675 44.8701 376.844 45.1575C375.967 45.437 375.487 45.7896 374.764 46.0942C374.395 46.2329 373.948 46.3573 373.425 46.4659C372.435 46.7075 371.35 46.9374 370.356 47.1846C369.363 47.4318 368.241 47.6094 367.137 47.8131C365.494 48.0549 363.718 48.2637 361.819 48.4384C360.644 48.5915 359.437 48.7406 358.35 48.9165C357.066 49.1148 355.558 49.2572 353.863 49.3402C352.366 49.4395 351.029 49.5864 349.876 49.778C349.755 49.7987 349.66 49.8251 349.593 49.8563C349.385 50.0518 348.804 50.1895 347.937 50.2485C347.99 50.3057 348.057 50.3639 348.139 50.4228C348.259 50.4929 348.284 50.5586 348.21 50.6113C348.137 50.6639 347.968 50.7011 347.726 50.7181C347.033 50.7665 346.457 50.8487 346.023 50.961C345.864 50.9892 345.766 51.0303 345.736 51.0807C345.706 51.1311 345.746 51.1893 345.852 51.2503C345.946 51.3132 345.953 51.371 345.872 51.4163C345.791 51.4616 345.625 51.4923 345.396 51.5045C344.81 51.5639 344.181 51.6118 343.516 51.6477C342.099 51.727 340.451 51.726 338.671 51.6449C338.482 51.6215 338.291 51.6576 338.07 51.6302C336.812 51.5394 335.643 51.5253 334.705 51.5897C333.606 51.6148 332.457 51.6098 331.298 51.6215C329.623 51.6137 328.078 51.6614 326.706 51.7635C325.138 51.6649 324.257 51.8364 322.934 51.8397C321.712 51.8574 320.553 51.8996 319.47 51.9661C317.723 52.0544 315.983 52.1315 314.262 52.2348C312.646 52.284 311.159 52.3781 309.825 52.5154C309.314 52.5775 308.389 52.4808 308.041 52.6109C307.692 52.741 306.99 52.7256 306.422 52.7687L304.631 52.8753C304.323 52.9007 303.984 52.9168 303.62 52.9233C301.954 52.932 300.801 53.1056 299.255 53.1411L299.097 53.1215C296.352 53.3797 293.21 53.5214 289.765 53.5424C287.753 53.6216 285.553 53.6178 283.417 53.6759C282.908 53.7919 281.705 53.6489 281.066 53.7549C280.427 53.8609 279.384 53.7914 278.56 53.8089C277.737 53.8263 276.931 53.8699 276.051 53.8684C275.287 53.8689 274.641 53.9162 274.174 54.0061C273.106 54.1546 271.804 54.242 270.327 54.2642C268.372 54.3028 266.524 54.3905 264.536 54.3712C264.565 54.4795 264.443 54.5716 264.183 54.638C263.923 54.7045 263.535 54.743 263.058 54.7495C260.933 54.7908 259.005 54.8984 256.851 54.9303L256.275 54.9306L249.834 54.9927C248.098 55.0047 246.426 55.0245 244.656 55.0382C243.993 54.9561 243.977 55.0974 243.518 55.0705C243.39 55.0009 243.239 54.9702 243.013 55.0079L242.964 55.0914L235.612 55.2021C232.734 55.2831 229.706 55.3073 226.555 55.2747C225.808 55.2829 225.11 55.3106 224.473 55.3573C223.883 55.3743 223.267 55.3818 222.63 55.3798C221.768 55.3588 220.926 55.3482 220.107 55.348C217.953 55.3799 215.693 55.3627 213.335 55.3393C210.977 55.316 209.19 55.3575 207.091 55.3543C205.669 55.3514 204.254 55.3374 202.783 55.3045C202.08 55.2891 201.214 55.2058 200.487 55.1754C199.759 55.145 199.522 55.1455 199.426 55.1933C199.109 55.3272 198.313 55.2406 197.677 55.2275C196.437 55.2053 196.26 55.1595 195.923 54.8132L197.446 54.7032C197.819 54.6677 198.288 54.6614 198.808 54.6851C199.328 54.7087 199.882 54.7614 200.416 54.8381C200.626 54.871 200.845 54.897 201.062 54.9146C201.278 54.9321 201.487 54.941 201.677 54.9405C203.213 54.9218 204.727 54.8824 206.203 54.8502L206.419 54.8292L206.433 54.5203C206.237 54.49 206.035 54.4649 205.833 54.4461L198.429 54.2456C196.73 54.1965 194.965 54.0854 193.298 54.0402C191.63 53.9949 190.732 53.9672 189.438 53.9204C188.892 53.8938 188.335 53.8587 187.772 53.8156C187.804 53.7858 187.823 53.7542 187.828 53.721C187.858 53.6709 187.897 53.6042 187.658 53.5506C187.396 53.475 187.048 53.4105 186.68 53.3699C186.336 53.343 186.001 53.3278 185.69 53.3249C184.189 53.299 182.474 53.1359 180.911 52.8703L180.365 53.0475C178.018 52.948 175.636 52.85 173.185 52.7554C172.694 52.7296 172.179 52.6801 171.678 52.6106C171.141 52.5441 170.647 52.4053 170.082 52.3294C169.524 52.2747 168.97 52.2321 168.429 52.2023C168.576 52.1567 168.769 52.1202 169.002 52.094C169.231 52.0849 169.399 52.0564 169.479 52.0127C169.56 51.969 169.55 51.9124 169.451 51.851C169.276 51.7458 169.199 51.6467 169.579 51.6341C169.931 51.6101 170.182 51.5581 170.304 51.4843C170.426 51.4105 170.413 51.3179 170.267 51.2175C170.203 51.1589 170.158 51.1014 170.131 51.0455V51.0455L169.974 51.026C169.453 50.8182 168.413 50.7431 167.667 50.573C167.314 50.5237 166.95 50.4954 166.63 50.4924C165.804 50.4559 165.001 50.4399 164.147 50.3939C163.739 50.3727 163.313 50.3341 162.892 50.2803C162.293 50.2061 162.23 50.1982 161.881 49.9282C162.422 49.9329 162.851 49.8925 163.095 49.814C163.339 49.7354 163.384 49.6234 163.221 49.4969C162.775 49.2207 162.304 48.9294 160.285 48.7332C160.943 48.7235 161.577 48.7043 162.183 48.6756C162.359 48.6694 162.491 48.6491 162.562 48.6174C162.632 48.5858 162.636 48.5442 162.575 48.4983C162.514 48.4524 162.389 48.4043 162.219 48.3606C162.048 48.3168 161.839 48.2795 161.62 48.2535C160.555 48.0973 159.443 47.9927 158.41 47.9515C157.54 47.9333 156.754 47.9435 155.738 47.9431L154.538 47.7945C154.558 47.7611 154.382 47.7154 154.427 47.6971C154.732 47.5258 155.068 47.3584 155.414 47.1744C154.861 47.075 154.382 46.955 154.032 46.8282C153.681 46.7014 153.474 46.5728 153.433 46.4573C153.403 46.4224 153.411 46.3906 153.456 46.3642C153.501 46.3378 153.582 46.3173 153.693 46.3043C154.009 46.282 154.253 46.2393 154.406 46.1795C154.559 46.1198 154.617 46.0446 154.575 45.9597L153.642 45.6471C150.833 45.424 148.075 45.2646 145.418 45.1719L143.02 45.1018C142.73 45.0182 142.82 44.9815 143.092 44.9794C143.365 44.9773 144.13 45.0005 144.665 45.013C145.127 45.0294 145.537 45.0186 145.856 44.9817C146.175 44.9448 146.391 44.883 146.484 44.8023L145.679 44.4458C145.719 44.3791 145.775 44.2845 146.211 44.2908C146.51 44.2831 146.73 44.2495 146.836 44.1954C146.941 44.1413 146.927 44.07 146.795 43.9928C146.775 43.9369 146.805 43.8861 146.884 43.8426C147.53 43.839 148.172 43.8409 148.759 43.8239C149.032 43.8183 149.262 43.7976 149.434 43.7633C149.607 43.729 149.717 43.6819 149.757 43.6252C149.779 43.5698 149.727 43.5067 149.607 43.441C149.487 43.3753 149.302 43.3088 149.067 43.247C148.148 43.1704 147.308 43.1695 146.73 43.2442C146.524 43.3028 146.193 43.3349 145.781 43.3361C145.369 43.3373 144.895 43.3076 144.422 43.251C143.88 43.1857 143.339 43.157 142.896 43.17C142.453 43.1831 142.138 43.2371 142.007 43.3222C141.451 43.2891 140.958 43.2639 140.471 43.2275C139.897 43.1815 139.354 43.168 138.901 43.1883C138.177 43.2027 137.397 43.1943 136.578 43.1633C134.218 43.086 131.854 43.0142 129.569 42.982C128.964 42.9729 128.441 42.9976 127.843 42.9773C127.246 42.957 126.772 43.0119 126.025 42.9014C125.882 42.8842 125.739 42.8732 125.606 42.8691C125.473 42.8651 125.354 42.8682 125.259 42.8782C123.946 42.9656 122.406 42.978 120.73 42.9145C118.435 42.899 116.055 42.8551 113.757 42.8451C113.083 42.8537 112.446 42.8767 111.852 42.9138C111.401 42.9362 110.928 42.9514 110.436 42.9593C110.059 42.9664 109.699 42.9456 109.762 43.067C109.826 43.1883 109.261 43.1124 108.935 43.09C107.817 43.0311 106.673 42.9515 105.518 42.8519C104.38 42.7437 103.265 42.6807 102.239 42.6667C101.499 42.6586 100.735 42.6894 99.7824 42.5237C99.8187 42.4625 99.8549 42.4013 100.062 42.3374C99.2856 42.1616 98.3996 42.0103 97.4773 41.8961C96.555 41.7818 95.623 41.7079 94.7585 41.6805L93.5663 41.3477C93.2728 41.3087 92.9731 41.2802 92.6856 41.2641C92.398 41.248 92.1285 41.2445 91.8936 41.254C91.712 41.2588 91.4907 41.2465 91.2703 41.2192C91.05 41.1919 90.8453 41.1515 90.6939 41.1054C90.4675 41.0468 90.191 40.9963 89.899 40.9601C89.607 40.924 89.3124 40.9038 89.0523 40.9021C88.2331 40.8659 87.3587 40.7824 86.5186 40.66C86.3006 40.5882 86.164 40.5141 86.1256 40.4468C86.0873 40.3794 86.1489 40.3218 86.3028 40.2809C86.551 40.2088 86.6904 40.1169 86.7124 40.0108C86.7345 39.9048 86.6389 39.7867 86.4313 39.6638C86.325 39.5883 86.2895 39.5169 86.3269 39.4538C86.3643 39.3907 86.4739 39.3372 86.649 39.2966C87.3025 39.1088 87.1276 39.0036 86.0585 38.692C85.8848 38.64 85.6754 38.5915 85.4436 38.5494C85.2119 38.5073 84.9629 38.4727 84.7122 38.4476C84.1242 38.3968 83.5442 38.359 82.983 38.335C82.6673 38.2959 82.3435 38.3274 81.9797 38.3122C80.161 38.2363 79.8947 38.1137 79.3057 37.8497L78.8764 37.6591C78.0803 37.5048 77.2095 37.3766 76.327 37.2838C75.4444 37.1911 74.572 37.136 73.7725 37.1225C73.4547 37.1215 73.0894 37.0952 72.7326 37.0475C71.5712 36.9017 70.395 36.8008 69.282 36.7515C68.5884 36.7238 67.8408 36.652 67.1289 36.5447C66.417 36.4375 65.771 36.2994 65.2688 36.147C64.8176 36.0097 64.2272 35.8865 63.58 35.7945C62.8223 35.7006 62.7521 35.5904 63.1752 35.5055C63.5983 35.4205 64.307 35.3112 64.936 35.2219C65.1549 35.1916 65.2905 35.1422 65.3278 35.0793C65.365 35.0165 65.3025 34.9426 65.147 34.8658C65.0472 34.7346 65.0299 34.61 65.0955 34.4952C65.1306 34.4475 65.1064 34.3927 65.0246 34.3347C64.9427 34.2767 64.8051 34.2167 64.621 34.1588C64.4369 34.1009 64.2107 34.0465 63.9575 33.9991C63.7043 33.9518 63.43 33.9127 63.1532 33.8844C61.9851 33.7397 60.8486 33.5989 59.6574 33.4932C59.1582 33.4434 58.6596 33.3816 58.1736 33.3094C57.1789 33.1309 56.1148 32.9829 55.043 32.8739C54.5343 32.8252 54.037 32.74 53.6587 32.6368C52.4654 32.3587 51.3658 32.0663 50.3799 31.7649C50.1423 31.6714 49.8314 31.5802 49.4666 31.497C49.1019 31.4138 48.6913 31.3404 48.2604 31.2814C47.9132 31.2384 47.6305 31.1437 47.3628 31.0807C47.1683 30.9347 47.1475 30.7998 47.3025 30.6884C47.4574 30.577 47.7829 30.4929 48.2485 30.4439C48.69 30.3851 49.1032 30.3168 49.4848 30.2446C49.9449 30.1863 50.4918 30.1512 51.1053 30.1408C51.8318 30.1095 52.3691 30.0199 52.647 29.8838C50.6581 29.6375 48.7667 29.2838 47.0233 29.3665L45.6987 29.1427C45.7514 29.0537 45.7976 28.9758 45.8405 28.9035C46.1555 28.7718 46.2539 28.6058 46.1273 28.4194C46.0229 28.3293 46.0324 28.2473 46.1546 28.1816C46.2768 28.116 46.5074 28.0692 46.8232 28.0458C48.6938 27.8057 50.857 27.6436 52.6111 27.3712C53.1612 27.32 53.805 27.2968 54.5156 27.3025C55.2031 27.2861 55.1743 27.1631 54.3832 27.0114C53.9391 26.9321 53.4865 26.8561 53.0271 26.7837C51.001 26.7716 50.1756 27.1352 47.8634 27.034L46.7918 26.5549C46.502 26.5475 46.2207 26.5445 45.9498 26.5461L42.073 26.7408C41.75 26.7506 41.4987 26.7839 41.3474 26.8369C41.1962 26.89 41.1511 26.9606 41.2173 27.0409C41.2436 27.1392 41.1902 27.2292 41.059 27.308C40.9745 27.3631 41.0286 27.4364 41.2094 27.5117C41.617 27.6817 41.094 27.7065 40.7638 27.7492C40.6793 27.7533 40.582 27.7529 40.4773 27.7479C40.3727 27.7428 40.2629 27.7333 40.1542 27.7198C40.0456 27.7064 39.9402 27.6893 39.8444 27.6695C39.7485 27.6497 39.6639 27.6276 39.5957 27.6045C39.0137 27.4428 38.5048 27.2723 37.9327 27.094C38.3388 26.9233 37.861 26.6432 38.4947 26.4887C38.5656 26.4579 38.594 26.4203 38.5781 26.3783C38.5622 26.3363 38.5023 26.2907 38.4023 26.2444C38.1442 26.1248 38.0213 26.0083 38.046 25.9065C38.0706 25.8047 38.2419 25.7212 38.5426 25.6646L38.5789 25.6034C37.7858 25.3977 37.996 25.2147 37.6845 24.9969L36.9216 24.8547C35.0236 24.5121 35.0203 24.5177 33.3862 24.5303C33.0568 24.3999 33.4753 24.3801 33.7891 24.3652L36.4174 24.2189C38.1358 24.1212 39.9041 24.0536 41.8237 24.0166C43.7433 23.9796 45.8834 23.8565 47.8675 23.7678C47.9679 23.761 48.0446 23.7474 48.0913 23.7282C48.138 23.7091 48.1534 23.6849 48.1361 23.6578C48.0572 23.6284 47.954 23.6001 47.834 23.5749C47.714 23.5497 47.5804 23.5283 47.4429 23.5122C46.8115 23.434 46.1637 23.3836 45.4908 23.3182L44.2364 23.2046L43.8505 23.0553C43.5994 22.9645 43.4278 22.8537 43.0937 22.7884C42.8184 22.7397 42.5196 22.7028 42.2282 22.6814C41.9369 22.66 41.6639 22.655 41.4375 22.6669C40.8099 22.6967 40.2421 22.7398 39.6428 22.779C39.0434 22.8183 38.7131 22.861 38.1934 22.8802C37.1375 22.889 36.117 22.9121 35.1364 22.9495C34.3105 23.038 33.5465 23.1428 32.8494 23.2634C32.4145 23.3111 32.0078 23.3682 31.2652 23.3061C30.9129 23.2498 30.609 23.1758 30.4074 23.0973C30.2059 23.0187 30.1196 22.9407 30.164 22.8771C30.2038 22.8272 30.3166 22.7877 30.4917 22.7624C30.6668 22.7371 30.8984 22.7267 31.1647 22.7323C31.9101 22.7231 32.5994 22.6923 33.2187 22.6403C34.0806 22.5462 35.1299 22.5056 36.3053 22.521C36.704 22.5345 36.9711 22.484 37.3198 22.4674C37.6685 22.4509 37.9639 22.4099 38.3526 22.4401C39.5603 22.518 40.1393 22.3986 40.8631 22.321C41.1081 22.2867 41.2598 22.2311 41.3017 22.1604C41.3436 22.0897 41.274 22.0067 41.1005 21.9205C40.7664 21.7487 40.3578 21.576 39.881 21.4051C39.6356 21.3211 39.3212 21.2413 38.9625 21.172C38.6037 21.1027 38.2104 21.0458 37.8133 21.0057C37.5757 20.9006 37.4489 20.7971 37.4444 20.7048C37.44 20.6125 37.558 20.5342 37.7878 20.477C38.3735 20.3465 38.8927 20.2138 40.205 20.2867C40.8219 20.3146 41.4026 20.3199 41.9238 20.3025C43.0799 20.2787 44.4135 20.3308 45.7989 20.454C46.1573 20.4856 46.5096 20.5071 46.8454 20.5179C49.2405 20.5936 51.5224 20.6314 53.8109 20.658C55.0233 20.6708 56.2456 20.6669 57.5112 20.7042C60.4792 20.7852 63.181 20.7436 66.0458 20.7699C67.5461 20.7835 68.8891 20.729 70.0042 20.6093C70.2214 20.5691 70.4079 20.5223 70.5615 20.4693C69.8226 20.3302 69.0109 20.22 68.2043 20.1494C67.3976 20.0788 66.623 20.05 65.9547 20.0659C65.5873 20.1049 65.1124 20.112 64.583 20.0865C64.0536 20.061 63.4906 20.0039 62.9565 19.9215V19.9215L64.5091 19.8749C65.5386 19.8531 66.5931 19.8464 67.5944 19.8151C69.1851 19.7613 70.6594 19.6752 72.3066 19.6403C73.6366 19.6083 74.8267 19.5263 75.8395 19.3971C76.5713 19.3028 77.407 19.236 78.3298 19.1979C78.9856 19.1776 78.9856 19.1776 79.405 18.9847C79.0723 18.8599 78.6421 18.8424 78.2369 18.84C75.8075 18.7615 73.4955 18.7477 71.3481 18.799C70.2647 18.8035 69.3035 18.8564 68.5107 18.9552C68.3166 18.9968 67.8199 18.9771 67.4213 18.9636C66.1717 18.943 64.9773 18.949 63.8526 18.9814C62.2975 19.0355 60.5656 19.0227 58.7241 18.9434C58.3749 18.8465 58.7769 18.8544 58.7967 18.821C60.2229 18.7588 61.6209 18.6871 63.0755 18.6344C63.4731 18.6156 63.8981 18.6063 64.3458 18.6066C66.017 18.6393 67.4097 18.5487 68.3287 18.3474C68.3748 18.2695 68.9794 18.2787 69.2465 18.2282C69.378 18.1844 69.4655 18.133 69.5066 18.0752C69.1173 17.9315 68.6773 17.9307 68.3385 17.9306C67.3554 17.9466 66.4097 17.977 65.5058 18.0217C64.6656 18.0641 63.7355 18.0755 62.7408 18.0554C62.0067 18.0362 61.3791 18.0659 60.6384 18.0578C60.2366 18.0407 59.8207 18.0132 59.3991 17.976C59.8685 17.8758 60.5065 17.8142 61.2684 17.7954C61.846 17.7356 62.5683 17.7176 62.6607 17.5618C62.3878 17.4504 62.0839 17.4485 61.8398 17.4601C61.3318 17.4597 60.841 17.4667 60.3702 17.4811C59.3718 17.5128 58.2909 17.5133 57.1501 17.4824C56.5494 17.4709 55.9793 17.4744 55.4496 17.4928C54.249 17.5173 53.0984 17.5719 51.9991 17.5969C49.7473 17.6226 47.6935 17.7146 45.5298 17.7632C45.0483 17.7752 44.6166 17.8173 43.9819 17.7446C43.3472 17.672 43.319 17.6625 43.2441 17.6174C43.0664 17.5422 43.0126 17.4692 43.0938 17.4137C43.2196 17.3618 43.4649 17.3329 43.7858 17.3322C45.72 17.2497 47.5546 17.1338 49.278 16.9852C50.0364 16.9555 50.701 16.8948 51.2484 16.8053C51.6826 16.7436 52.1976 16.7028 52.7774 16.6841C53.6205 16.6395 54.4995 16.6068 55.4108 16.5862C55.8348 16.5752 56.1953 16.5421 56.4712 16.4891C56.7471 16.4361 56.9326 16.3642 57.017 16.2775L55.8998 15.9899C55.7243 15.9765 55.5502 15.9649 55.3782 15.9551L46.1058 16.1624L45.1875 16.1681C44.181 16.1509 43.935 16.1085 42.9803 15.7753C45.1591 15.6969 46.8719 15.4684 47.9479 15.1125C47.6893 15.0742 47.4242 15.0414 47.1587 15.0148C45.4175 14.9306 43.7716 14.9082 42.2842 14.9485C41.4008 14.9526 40.4923 14.9416 39.5806 14.9362C39.8473 14.7721 40.8688 14.821 41.5345 14.784C43.1253 14.7261 44.532 14.6066 45.7097 14.4292C46.1157 14.3601 46.6237 14.3158 47.2103 14.2986C47.7974 14.2926 48.2878 14.2508 48.6389 14.1766C48.99 14.1025 49.191 13.9983 49.2245 13.8732C49.2798 13.7599 49.3991 13.6546 49.5803 13.5589C49.2596 13.4232 48.7504 13.2932 48.1482 13.1933C47.5461 13.0934 46.8923 13.0306 46.3097 13.0165C45.0659 12.9606 43.7758 12.8691 42.4723 12.7443C41.823 12.6813 41.1863 12.6452 40.6036 12.6383C40.0897 12.6329 39.5056 12.5874 38.9403 12.5088C38.3751 12.4302 37.8598 12.3227 37.4729 12.2027C36.9508 12.0545 36.4635 11.9045 35.9763 11.7546C35.4891 11.6047 34.9237 11.4152 34.3549 11.2313C33.8535 11.2026 33.3651 11.1841 32.8966 11.1761C32.5321 11.1829 32.1067 11.1628 31.6707 11.1183C31.2347 11.0738 30.8063 11.0068 30.436 10.9251V10.9251C30.6532 10.8445 30.8987 10.7734 31.1573 10.68C30.8023 10.5567 30.5449 10.431 30.4007 10.3105C30.2566 10.1899 30.2288 10.0771 30.319 9.97899C30.3718 9.88997 29.9858 9.74065 29.8524 9.62261C29.6807 9.52085 29.6485 9.42588 29.7599 9.35016C29.8713 9.27444 30.1212 9.2215 30.4767 9.19829C30.9177 9.15543 31.2766 9.0909 31.5387 9.00733C31.6254 8.98564 31.6696 8.95593 31.6671 8.92092C31.6646 8.88591 31.6156 8.84673 31.5246 8.80694C31.4336 8.76715 31.3034 8.72803 31.146 8.69316C30.9886 8.65829 30.809 8.62879 30.6236 8.60734C30.0557 8.54654 29.4918 8.50713 28.9641 8.49138C28.055 8.46239 27.1847 8.44419 26.3532 8.43676C25.4336 8.42558 24.4106 8.35656 23.388 8.23672C22.4725 8.12333 21.6516 8.02167 21.204 7.80498C20.7563 7.58829 20.0405 7.5952 19.4902 7.43745C19.7993 7.29526 20.3488 7.19646 21.0832 7.15103C21.5638 7.13481 21.965 7.09225 22.261 7.02607C22.5569 6.95989 22.7413 6.87154 22.8021 6.76672L21.1311 6.32686C19.7967 6.11979 19.0584 6.27917 17.6165 6.19614L19.1022 6.03377C19.132 6.01772 19.1432 5.99887 19.1351 5.97813C18.9909 5.64973 18.7614 5.5795 17.2427 5.39738L16.3904 5.29181L15.0413 5.16653C14.8253 5.09923 14.6758 5.02905 14.6079 4.96299C14.54 4.89694 14.5561 4.83735 14.6544 4.79016C14.8521 4.71081 14.9122 4.6094 14.8292 4.49529C14.6983 4.4197 14.6875 4.35001 14.7987 4.29832C14.9098 4.24663 15.1358 4.21619 15.4374 4.21231C15.6782 4.2063 15.6961 4.11893 15.8271 4.06946C15.9572 4.00128 16.18 3.94896 16.4802 3.91607C16.7803 3.88317 17.1508 3.87046 17.5666 3.87882C18.7923 3.88564 19.9438 3.86005 21.0006 3.80249L20.8112 3.77903C21.9126 3.82956 22.9424 3.83569 23.8503 3.79712C24.7601 3.74856 25.9278 3.77971 26.8942 3.7501C27.6809 3.75689 28.2799 3.68969 28.564 3.56277C28.8392 3.44157 29.839 3.46986 30.6047 3.49303C31.0583 3.50801 31.4966 3.51436 31.9151 3.512C32.4768 3.48457 33.1791 3.51043 33.905 3.58526C34.1227 3.60826 34.3373 3.62043 34.5279 3.62061C36.373 3.65206 38.2149 3.68908 40.0351 3.70549C40.4552 3.69604 40.9479 3.71769 41.4552 3.76791C41.6685 3.78972 41.876 3.79875 42.0499 3.7938C44.926 3.74392 48.1715 3.87118 50.9911 3.80235C51.3328 3.7861 51.7112 3.78272 52.1154 3.7923C53.0237 3.83273 53.8125 3.80671 54.362 3.7182C54.6584 3.67112 55.0385 3.64518 55.478 3.64203C55.9174 3.63888 56.4066 3.65858 56.9144 3.69989C57.7593 3.7546 58.5402 3.76052 59.1746 3.71707C60.4116 3.67691 61.7126 3.6604 63.0671 3.66766C63.4821 3.67469 63.847 3.65908 64.1333 3.62206C64.4197 3.58504 64.6199 3.52758 64.7185 3.45416C64.3858 3.32935 64.0221 3.31416 63.6767 3.32513C62.3381 3.29669 61.0027 3.26269 59.6891 3.24928C58.5132 3.211 57.385 3.1993 56.321 3.21434C55.7927 3.23132 55.1335 3.19261 54.4872 3.10665C53.6951 2.99779 52.8792 2.94371 52.2047 2.95534C51.7045 2.95823 51.1766 2.94886 50.6285 2.92735C50.2778 2.90142 49.9182 2.85688 49.5868 2.79832C49.4552 2.77289 49.3121 2.7515 49.1665 2.73553C49.0209 2.71957 48.8761 2.70938 48.7412 2.7056C48.6063 2.70182 48.4843 2.70453 48.3831 2.71358C48.2819 2.72263 48.2037 2.73782 48.1534 2.75816C47.646 2.92822 46.5113 2.84143 45.5398 2.82262C44.0837 2.53479 43.0001 2.70515 41.6393 2.54258C41.5317 2.53181 41.4256 2.52528 41.3277 2.52341C41.2297 2.52155 41.142 2.52439 41.0696 2.53174C38.4361 2.62959 35.3669 2.54805 32.6019 2.58184C32.297 2.58678 31.9431 2.56984 31.5804 2.53295C29.2101 2.28881 26.9312 2.2195 25.1892 2.33857C24.9772 2.3493 24.7361 2.34976 24.4768 2.33992C23.2857 2.24289 22.1468 2.2042 21.1549 2.22709C19.6005 2.2197 18.1059 2.22569 16.5265 2.20327C15.4377 2.17135 14.4826 2.20545 13.7568 2.30216C13.7337 2.3411 13.2502 2.29914 12.8799 2.29507C12.6669 2.19703 12.4822 2.10847 12.2626 2.02155C12.0663 1.91402 11.7723 1.80521 11.4005 1.70249C11.0287 1.59978 10.5879 1.50556 10.1078 1.42622C9.28701 1.32455 9.20492 1.17703 9.77928 1.12276C11.2597 0.943193 13.1213 0.8697 15.2271 0.90767C16.9875 0.910704 18.7794 0.917657 20.5648 0.935729C21.6061 0.951233 22.7039 0.98567 23.7169 0.9917C24.0588 1.00495 24.4099 1.02447 24.7667 1.05006C25.2046 1.08717 25.6297 1.10739 26.0192 1.10963C27.2698 1.07838 28.6655 1.1056 30.1397 1.18999C30.6797 1.2084 31.1982 1.2146 31.6876 1.20851C32.8452 1.1856 34.1002 1.20246 35.4193 1.25864C36.2392 1.29031 37.0342 1.30688 37.7961 1.30815C38.0651 1.31161 38.2842 1.285 38.5434 1.30516C40.8244 1.51601 42.4396 1.36371 44.4926 1.44479C45.4904 1.4674 46.4436 1.46746 47.339 1.44498C49.0863 1.44607 50.8824 1.46918 52.72 1.51424C55.1499 1.58825 57.4016 1.56257 59.7217 1.59313C60.1798 1.59955 60.6221 1.59846 61.0453 1.58985C63.1043 1.53297 65.3407 1.54503 67.6999 1.62574C68.2356 1.6374 68.7167 1.62314 69.1132 1.58387C69.5096 1.5446 69.8129 1.48116 70.0039 1.39751C70.0847 1.34011 70.0324 1.26554 69.8569 1.1882C69.5657 1.08944 69.2369 0.992666 68.8758 0.899485L55.7433 0.586809C55.1918 0.57048 54.6539 0.561691 54.1324 0.560476C52.5986 0.557758 51.0177 0.533432 49.3974 0.487623C47.7963 0.444593 46.2668 0.452232 44.7157 0.439277C44.2588 0.434937 43.7898 0.424697 43.3106 0.408587C40.0719 0.281084 36.9138 0.203207 33.8586 0.175515C32.5732 0.171585 31.1846 0.113069 29.8742 0.0941022C28.5638 0.0751356 26.7719 0.0681911 25.2175 0.060799L20.4048 0.0619341C19.4582 0.0581603 18.5366 0.0694199 17.6182 0.0751197C16.5038 -0.331642 16.1198 -0.426984 14.6327 -0.605192C14.1239 -0.670929 13.6064 -0.710159 13.1409 -0.718287C11.6647 -0.686131 9.81241 -0.819987 8.41252 -0.802265C7.56781 -0.811006 6.85103 -0.76582 6.33557 -0.671329C5.88811 -0.597171 5.37644 -0.538493 4.80845 -0.496179C3.25253 -0.844154 3.11541 -1.07015 4.28582 -1.1581C4.60292 -1.17855 5.03971 -1.17222 5.26869 -1.21552C5.40008 -1.2419 5.57957 -1.25698 5.79286 -1.25959C6.00615 -1.26219 6.24733 -1.25226 6.4975 -1.23055C7.28704 -1.1736 8.02707 -1.16021 8.64333 -1.19172C9.2233 -1.23341 9.93422 -1.23175 10.7075 -1.18688C11.2758 -1.1165 11.7753 -1.21588 12.2667 -1.24459C12.7582 -1.2733 13.1615 -1.32488 13.929 -1.24773C14.0696 -1.23237 14.2091 -1.22314 14.337 -1.22077C14.4648 -1.2184 14.5775 -1.22293 14.6664 -1.23403C15.4908 -1.28372 16.4746 -1.2785 17.5379 -1.2188C19.1686 -1.16005 20.6987 -1.15784 22.0749 -1.21226C22.8987 -1.25988 23.6012 -1.34432 24.1547 -1.46229C24.3056 -1.50174 24.5296 -1.5254 24.8054 -1.531C26.1901 -1.50638 27.6936 -1.41375 29.219 -1.25906C29.7937 -1.19708 30.3676 -1.14806 30.9285 -1.11303C32.0813 -1.03522 33.1964 -0.991615 34.2405 -0.983513C35.7577 -0.982228 37.3375 -0.95229 38.9656 -0.893968C39.9704 -0.861495 40.9385 -0.849509 41.8586 -0.858142C42.8043 -0.862212 43.814 -0.837441 44.8649 -0.784406C45.9099 -0.741188 46.8308 -0.76609 47.5166 -0.856096C47.7425 -0.904597 47.9244 -0.962192 48.059 -1.0278C46.5289 -1.24131 44.9464 -1.34981 43.6302 -1.33147C43.1303 -1.34561 42.7151 -1.33134 42.1883 -1.4145L42.1719 -1.38668C42.067 -1.36863 41.9089 -1.36437 41.7275 -1.37472C41.5462 -1.38506 41.3543 -1.40929 41.1885 -1.44278V-1.44278C41.2512 -1.54849 41.3105 -1.64863 41.3534 -1.72096C42.3562 -1.7082 43.3299 -1.70923 44.2696 -1.72406C45.0617 -1.7454 46.1369 -1.55848 46.8225 -1.62884C48.1597 -1.54086 49.0111 -1.66234 50.2103 -1.62729C51.4095 -1.59223 52.7302 -1.47643 53.9294 -1.44137C54.9758 -1.42214 55.9918 -1.41796 56.9718 -1.42885C57.3101 -1.44414 57.7 -1.44055 58.1177 -1.41831C58.7049 -1.37645 59.2511 -1.36944 59.6936 -1.39808C60.1361 -1.42671 60.457 -1.48984 60.6197 -1.58022C60.4665 -1.66488 60.2602 -1.77404 60.0222 -1.88712C60.46 -1.98004 61.1248 -2.01916 61.9182 -1.99867L63.0392 -2.00316C63.3362 -2.00071 63.5633 -2.02583 63.6734 -2.07332C63.7836 -2.12081 63.7684 -2.18704 63.631 -2.25832C61.5054 -2.61713 61.4271 -2.65669 59.867 -2.4259L57.7957 -2.53314L57.8306 -2.53479ZM85.8474 -1.54915L85.6896 -1.56869L85.8474 -1.54915ZM343.98 36.6262L343.944 36.6873L343.983 36.6206L344.331 36.6636L344.354 36.6246L343.98 36.6262ZM293.56 9.80217C293.069 9.7354 292.573 9.67402 292.076 9.6184C291.946 9.60977 291.824 9.60782 291.721 9.61272C291.618 9.61761 291.536 9.6292 291.483 9.6465C291.444 9.71326 291.721 9.75959 291.974 9.79087C292.292 9.83297 292.618 9.85972 292.916 9.86837C293.215 9.87702 293.476 9.86725 293.673 9.84007L293.958 9.81571L293.56 9.80217ZM40.7398 26.0741C41.063 26.0853 41.3695 26.0871 41.6516 26.0795C42.9036 26.0255 44.1022 25.947 45.3857 25.897C47.0051 25.7699 48.866 25.7182 50.8985 25.7437C51.6926 25.7562 52.3635 25.715 52.8328 25.625C53.1138 25.5766 53.4764 25.5484 53.8985 25.542L59.2719 25.3953C59.604 25.3648 59.8912 25.3222 60.1266 25.2682C59.6531 25.2096 59.3374 25.1705 59.148 25.147C58.755 25.1404 58.4172 25.1583 58.1684 25.1989C57.9012 25.2677 57.4496 25.2949 56.9032 25.2751C56.3517 25.2588 55.8138 25.25 55.2923 25.2488C54.3075 25.2522 53.3161 25.2668 52.328 25.2758C51.9436 25.467 50.8089 25.3803 49.8373 25.3615L49.0867 25.37C46.6332 25.4692 44.2895 25.6056 42.0671 25.7786C41.6375 25.8079 41.2675 25.8546 40.9683 25.9172C40.8556 25.9661 40.8195 26.0271 40.8628 26.0953L40.705 26.0757L40.7398 26.0741ZM150.304 44.3617C150.899 44.3747 151.519 44.4015 152.154 44.4415C152.644 44.4825 153.121 44.5073 153.568 44.5151C156.07 44.558 158.678 44.657 161.356 44.8108C161.706 44.8341 162.043 44.8456 162.352 44.8447L164.544 44.8056C165.235 44.7837 165.248 44.7614 164.746 44.4663C164.328 44.409 163.906 44.3567 163.483 44.3099C163.23 44.2786 162.82 44.2277 162.724 44.2756C162.138 44.4061 161.07 44.3215 160.171 44.2939C157.57 44.2226 154.888 44.1173 152.262 44.0309C151.707 44.0098 151.169 43.9991 150.654 43.999C150.335 43.9946 150.043 44.0029 149.792 44.0236C149.719 44.0258 149.658 44.0319 149.612 44.0418C149.567 44.0516 149.539 44.0648 149.529 44.0806C149.52 44.0964 149.53 44.1144 149.558 44.1333C149.586 44.1523 149.632 44.1718 149.693 44.1905C149.908 44.2563 150.157 44.3192 150.43 44.3773L150.304 44.3617ZM169.357 1.51995L171.919 1.48495C172.227 1.4812 172.487 1.44181 172.816 1.45865C174.571 1.51204 176.195 1.49717 177.62 1.41467C178.106 1.381 178.673 1.37427 179.292 1.39484C181.188 1.45581 182.976 1.45832 184.608 1.4023C185.663 1.39105 186.651 1.35329 187.556 1.28957C187.625 1.27478 187.669 1.2547 187.683 1.23069C187.697 1.20669 187.682 1.17933 187.638 1.15048C187.627 1.13226 187.596 1.11265 187.547 1.09301C187.499 1.07338 187.434 1.05418 187.357 1.03674C187.281 1.0193 187.194 1.00404 187.103 0.992006C187.013 0.979969 186.92 0.971437 186.832 0.967011C185.689 0.880759 184.603 0.85071 183.665 0.879306C182.794 0.91352 181.857 0.923531 180.868 0.909183C179.921 0.90541 179.279 1.01697 178.11 0.931845C177.615 0.903814 177.179 0.913042 176.874 0.957986C176.262 1.03248 175.407 1.03662 174.461 0.969679C173.896 0.935799 173.355 0.921269 172.86 0.926645C171.66 0.951137 170.512 1.00014 169.4 1.04749C169.049 1.05844 168.674 1.05995 168.279 1.05199L162.709 0.959272C161.37 0.930832 160.035 0.896828 158.721 0.883425C157.647 0.854322 156.647 0.863437 155.757 0.910447C154.808 0.959858 153.773 0.979917 152.671 0.970247C150.961 0.997286 149.26 1.00763 147.399 1.00399C146.211 1.00623 144.996 0.998997 143.755 0.976723C143.128 0.948057 142.595 0.971402 142.259 1.04226C142.055 1.1006 141.575 1.05308 141.176 1.03954C139.05 0.909043 137.056 0.878123 135.334 0.94893C135.114 0.960468 134.872 0.964645 134.615 0.961389C132.956 0.958958 131.237 0.943142 129.644 0.942967C129.225 0.948468 128.83 0.963564 128.465 0.988063C128.504 1.02803 128.616 1.07135 128.776 1.10904C128.937 1.14672 129.135 1.17589 129.328 1.19047C130.834 1.30214 132.289 1.36112 133.63 1.36496C135.863 1.35074 138.201 1.38272 140.622 1.46056C142.5 1.53904 144.213 1.52251 145.632 1.41222C146.742 1.32992 148.185 1.36089 149.714 1.4998C150.369 1.56614 151.004 1.59267 151.533 1.57576C152.042 1.55357 152.627 1.55895 153.252 1.59158C154.57 1.65361 155.838 1.68239 157.03 1.67735C158.196 1.65451 159.284 1.59212 160.481 1.57319C161.678 1.55427 163.502 1.56511 164.978 1.53295C166.454 1.5008 167.914 1.49647 169.357 1.51995ZM63.1848 -1.7343C63.3201 -1.56228 63.7989 -1.4552 64.3139 -1.40933C66.0895 -1.20566 67.8449 -1.11898 69.2853 -1.16386C70.0635 -1.22646 71.1008 -1.20237 72.1935 -1.09631C73.4659 -0.986055 74.6551 -0.96777 75.5516 -1.04468C75.7713 -1.05811 75.9395 -1.08652 76.0412 -1.12737C76.061 -1.16075 76.0972 -1.22195 76.1038 -1.23308C76.0096 -1.2613 75.8941 -1.28744 75.7662 -1.3095C75.6382 -1.33156 75.5013 -1.34894 75.366 -1.3603L69.4846 -1.55721L68.4597 -1.60055C66.5877 -1.71407 64.8039 -1.7593 63.1848 -1.7343V-1.7343ZM74.7534 0.988443C75.6714 1.26934 75.6746 1.26377 76.1448 1.32798C78.4135 1.59471 80.6806 1.73869 82.6765 1.7428C83.12 1.74198 83.4965 1.71487 83.7739 1.66373C83.9167 1.6568 84.0075 1.63478 84.0267 1.60247C84.0458 1.57016 83.9917 1.53019 83.8761 1.49126L83.1462 1.29337C81.8206 1.20769 80.5141 1.13962 79.2344 1.08956C77.7445 1.03044 76.4242 1.02816 74.8796 1.00407L74.7534 0.988443ZM150.194 43.1178C151.049 43.5044 151.052 43.4989 152.484 43.5986C153.482 43.6693 154.45 43.7107 155.359 43.7218C156.47 43.734 157.61 43.7557 158.718 43.7734C158.988 43.7857 159.217 43.7755 159.361 43.7447C159.504 43.7139 159.552 43.6648 159.494 43.6068C159.349 43.5439 159.121 43.483 158.849 43.4341C158.576 43.3852 158.275 43.3511 157.993 43.3373L157.389 43.3282C156.655 43.3089 155.892 43.2802 155.183 43.2759C154.723 43.292 154.19 43.2796 153.626 43.2397C153.061 43.1999 152.481 43.1337 151.93 43.0463L150.194 43.1178ZM79.3207 -1.22881C79.549 -1.16186 79.8073 -1.09773 80.0887 -1.03814C81.178 -0.872968 82.331 -0.779157 83.3215 -0.775098C83.7899 -0.764865 84.2182 -0.801398 84.695 -0.74831C85.5503 -0.677371 86.3791 -0.639583 87.1368 -0.636992C87.1368 -0.636992 87.3493 -0.652482 87.419 -0.655789L87.5641 -0.900585C87.2054 -0.957295 86.8313 -1.00362 86.4591 -1.03744C85.21 -1.10257 83.9826 -1.14709 82.7584 -1.19718C81.5343 -1.24728 81.1074 -1.27029 80.3068 -1.2918C79.9497 -1.27997 79.6194 -1.25887 79.3207 -1.22881ZM52.2703 29.2041L53.905 29.7052C54.434 29.7487 54.9281 29.7566 55.3123 29.7277C55.6965 29.6987 55.9496 29.6345 56.0332 29.5448C56.1678 29.5028 56.1813 29.4406 56.0708 29.3713C55.9603 29.3019 55.7344 29.2308 55.4405 29.1728C55.1575 29.104 54.8346 29.0424 54.4916 28.9917C54.1486 28.941 53.7928 28.9023 53.4464 28.878L52.2703 29.2041ZM65.8805 26.7094C64.8113 26.6245 63.7888 26.5898 62.8908 26.6079C62.3251 26.6576 61.5586 26.6417 60.7484 26.5635C59.275 26.4076 57.8547 26.3645 56.7871 26.4432C56.7871 26.4432 56.7475 26.5099 56.5666 26.5293C56.3856 26.5487 57.1032 26.5958 57.2611 26.6153C58.4188 26.6632 59.5831 26.6999 60.5896 26.717C61.2144 26.7163 61.8754 26.7321 62.561 26.7641C63.5044 26.8136 64.3991 26.8296 65.21 26.8115C65.21 26.8115 65.5238 26.7967 65.8772 26.715L65.8805 26.7094ZM180.061 0.61219C179.551 0.517828 178.997 0.441135 178.442 0.387871C177.886 0.334606 177.344 0.306154 176.855 0.304639C176.48 0.299716 176.177 0.32463 175.994 0.375443C175.81 0.426257 175.757 0.50007 175.841 0.58521C176.22 0.632131 176.725 0.69469 177.009 0.72988C177.994 0.726437 178.834 0.68119 180.061 0.61219ZM275.655 8.56407C275.246 8.4881 274.794 8.43002 274.353 8.39646C273.911 8.3629 273.498 8.35521 273.159 8.37427C272.984 8.38253 273.103 8.46885 273.073 8.51892C273.054 8.53027 273.054 8.54439 273.074 8.5598C273.093 8.57521 273.132 8.59134 273.185 8.6065C273.239 8.62166 273.305 8.63529 273.377 8.64597C273.449 8.65665 273.524 8.66398 273.595 8.66719C274.04 8.69991 274.459 8.70965 274.816 8.69554C275.174 8.68143 275.457 8.64391 275.642 8.58632L275.655 8.56407ZM282.06 9.64996C281.997 9.60514 281.862 9.55843 281.681 9.51838C281.499 9.47833 281.283 9.44763 281.071 9.43192C280.698 9.42981 280.359 9.44224 280.067 9.46874C279.75 9.48919 279.978 9.61896 280.407 9.69596C280.588 9.72687 280.782 9.75097 280.973 9.76636C281.164 9.78175 281.347 9.78801 281.507 9.78462C281.667 9.78124 281.8 9.76831 281.895 9.74686C281.989 9.72542 282.044 9.69605 282.054 9.66109L282.06 9.64996ZM95.9479 -0.752043C94.9923 -0.912199 94.2568 -0.871908 93.4478 -0.936278C92.6388 -1.00065 92.4394 -1.00742 92.5478 -0.904417C92.6562 -0.801414 93.2108 -0.822303 93.5581 -0.779293C94.0273 -0.722221 94.4993 -0.68945 94.9214 -0.684637C95.3434 -0.679824 95.6989 -0.703162 95.9479 -0.752043V-0.752043ZM295.073 26.3467C294.567 26.3108 294.071 26.2854 293.593 26.2709C293.53 26.2858 293.491 26.3053 293.477 26.3282C293.464 26.3511 293.476 26.3771 293.514 26.4044C293.514 26.4044 293.838 26.4864 294.027 26.5098C294.725 26.5903 294.76 26.4751 295.073 26.3467V26.3467ZM366.611 41.2683C366.953 41.3765 367.113 41.45 367.387 41.5019C367.513 41.5199 367.643 41.533 367.768 41.5402C367.893 41.5474 368.009 41.5484 368.108 41.5434C368.229 41.5122 368.257 41.4646 368.187 41.4099C368.187 41.4099 367.838 41.3129 367.705 41.3084C367.326 41.2855 366.959 41.272 366.611 41.2683V41.2683ZM79.6824 -1.66773C78.9563 -1.75766 78.2617 -1.84369 77.759 -1.73874C78.912 -1.6258 78.9121 -1.62579 79.6824 -1.66773ZM91.4429 -0.641141C90.7097 -0.833473 90.2795 -0.850926 89.9275 -0.828828C89.8527 -0.823262 89.8032 -0.810856 89.7865 -0.793494C89.7698 -0.776133 89.7868 -0.754758 89.8349 -0.732602C89.8831 -0.710445 89.9597 -0.688716 90.0533 -0.670698C90.1468 -0.65268 90.2523 -0.639354 90.3535 -0.632739C90.7359 -0.627203 91.1006 -0.630014 91.4429 -0.641141V-0.641141ZM129.179 -0.559812C129.196 -0.58763 129.215 -0.62101 129.026 -0.644471C128.976 -0.65638 128.918 -0.666622 128.857 -0.674172C128.796 -0.681722 128.735 -0.686308 128.679 -0.687476C128.679 -0.687476 128.659 -0.654093 128.646 -0.631839L129.179 -0.559812ZM155.384 45.6239L154.963 45.6493L155.152 45.6728L155.652 45.6869L155.384 45.6239ZM303.87 9.2159C303.712 9.19635 303.554 9.17679 303.531 9.21574C303.498 9.22177 303.477 9.23048 303.471 9.24112C303.465 9.25177 303.473 9.26405 303.495 9.27694C303.495 9.27694 303.716 9.30431 303.811 9.31604L303.87 9.2159ZM279.287 9.52737C279.183 9.52514 279.089 9.52775 279.011 9.53504C279.011 9.53504 278.991 9.56842 278.991 9.56842L279.307 9.60753L279.287 9.52737ZM65.0467 17.4811C64.9248 17.4608 64.7956 17.4448 64.6679 17.4342L64.51 17.4146C64.51 17.4146 64.6796 17.4714 64.7743 17.4832C64.869 17.4949 64.9454 17.4805 65.0467 17.4811Z" fill="#DF6951"/>
</g>
</svg>
