<svg width="23" height="18" viewBox="0 0 23 18" fill="none" xmlns="http://www.w3.org/2000/svg">
<path d="M19.8457 17.8607C19.3956 17.8699 18.9534 17.7411 18.5786 17.4916C18.2996 17.3094 17.9736 17.2123 17.6403 17.2123C17.3071 17.2123 16.981 17.3094 16.702 17.4916C16.3234 17.7327 15.8839 17.8607 15.4351 17.8607C14.9862 17.8607 14.5467 17.7327 14.1681 17.4916C13.8891 17.3092 13.563 17.212 13.2297 17.212C12.8963 17.212 12.5702 17.3092 12.2912 17.4916C11.9126 17.7327 11.4731 17.8607 11.0243 17.8607C10.5754 17.8607 10.1359 17.7327 9.75729 17.4916C9.47852 17.3093 9.15262 17.2122 8.8195 17.2122C8.48638 17.2122 8.16049 17.3093 7.88172 17.4916C7.53845 17.7198 7.13784 17.8466 6.72583 17.8575L6.70312 17.2088C7.00746 17.2016 7.303 17.1053 7.55318 16.9319C7.9317 16.6909 8.37111 16.5629 8.81983 16.5629C9.26855 16.5629 9.70796 16.6909 10.0865 16.9319C10.3654 17.1142 10.6915 17.2113 11.0247 17.2113C11.358 17.2113 11.6841 17.1142 11.963 16.9319C12.3417 16.6906 12.7813 16.5625 13.2303 16.5625C13.6793 16.5625 14.1189 16.6906 14.4976 16.9319C14.7766 17.1142 15.1026 17.2113 15.4359 17.2113C15.7692 17.2113 16.0952 17.1142 16.3742 16.9319C16.7528 16.6909 17.1923 16.5629 17.6411 16.5629C18.0899 16.5629 18.5295 16.6909 18.9081 16.9319C19.1877 17.1146 19.5146 17.212 19.8486 17.212C20.1827 17.212 20.5096 17.1146 20.7892 16.9319C21.1636 16.6831 21.605 16.5545 22.0544 16.5634V17.2121C21.7198 17.2029 21.391 17.3007 21.1158 17.4913C20.74 17.7412 20.2969 17.8701 19.8457 17.8607V17.8607Z" fill="white"/>
<path d="M2.2054 17.8603C1.75534 17.8697 1.31323 17.7408 0.938594 17.4913C0.66347 17.3005 0.334649 17.2026 0 17.2117V16.563C0.45017 16.5537 0.892396 16.6825 1.26713 16.9321C1.54211 17.1229 1.87085 17.2209 2.2054 17.2117C2.54011 17.2209 2.86899 17.1228 3.144 16.9318C3.51794 16.6823 3.95944 16.5536 4.40886 16.563C4.8474 16.5532 5.27867 16.6761 5.64616 16.9156L5.31892 17.4754C5.05049 17.2947 4.73229 17.2025 4.40886 17.2117C4.07554 17.2027 3.74805 17.3004 3.47416 17.4906C3.09909 17.7409 2.65621 17.87 2.2054 17.8603V17.8603Z" fill="white"/>
<path d="M19.8464 15.5869C19.3959 15.596 18.9534 15.4673 18.5783 15.2178C18.2991 15.0353 17.9727 14.9381 17.6392 14.9381C17.3056 14.9381 16.9793 15.0353 16.7001 15.2178C16.3215 15.4588 15.8821 15.5868 15.4333 15.5868C14.9845 15.5868 14.5451 15.4588 14.1665 15.2178C13.8877 15.0354 13.5617 14.9383 13.2285 14.9383C12.8954 14.9383 12.5694 15.0354 12.2906 15.2178C11.912 15.4588 11.4726 15.5869 11.0238 15.5869C10.575 15.5869 10.1355 15.4588 9.75697 15.2178C9.47814 15.0354 9.15219 14.9383 8.81903 14.9383C8.48586 14.9383 8.15992 15.0354 7.88108 15.2178C7.50646 15.4674 7.06434 15.5962 6.61427 15.5869C6.1642 15.5962 5.72208 15.4674 5.34746 15.2178C5.07259 15.027 4.74396 14.9291 4.40951 14.9382C4.07517 14.9291 3.74667 15.0271 3.47189 15.2178C3.09786 15.4671 2.65645 15.5959 2.20703 15.5869C1.75686 15.5962 1.31463 15.4674 0.939892 15.2178C0.664467 15.0267 0.335107 14.9287 0 14.9382V14.2896C0.450063 14.2803 0.892172 14.4091 1.26681 14.6586C1.54194 14.8494 1.87076 14.9473 2.20541 14.9382C2.53975 14.9473 2.86825 14.8493 3.14303 14.6586C3.51706 14.4093 3.95847 14.2805 4.40789 14.2896C4.85829 14.28 5.30079 14.4088 5.67568 14.6586C5.95065 14.8494 6.27939 14.9474 6.61395 14.9382C6.9485 14.9474 7.27724 14.8494 7.55222 14.6586C7.93076 14.4175 8.37023 14.2895 8.81903 14.2895C9.26782 14.2895 9.7073 14.4175 10.0858 14.6586C10.3647 14.841 10.6907 14.9381 11.0239 14.9381C11.3572 14.9381 11.6832 14.841 11.9621 14.6586C12.3406 14.4175 12.7801 14.2895 13.2289 14.2895C13.6777 14.2895 14.1171 14.4175 14.4957 14.6586C14.7746 14.841 15.1006 14.9381 15.4338 14.9381C15.767 14.9381 16.093 14.841 16.3719 14.6586C16.7508 14.4176 17.1906 14.2896 17.6397 14.2896C18.0888 14.2896 18.5285 14.4176 18.9075 14.6586C19.1868 14.841 19.5133 14.938 19.8469 14.938C20.1805 14.938 20.5069 14.841 20.7863 14.6586C21.1613 14.4092 21.6037 14.2804 22.0541 14.2896V14.9382C21.7188 14.9287 21.3892 15.0267 21.1135 15.2178C20.7386 15.4671 20.2965 15.5959 19.8464 15.5869V15.5869Z" fill="white"/>
<path d="M19.8424 13.3223C19.3922 13.3315 18.95 13.2027 18.5752 12.9533C18.3001 12.7625 17.9713 12.6646 17.6366 12.6737C17.391 12.6653 17.1472 12.7176 16.9267 12.8261L16.6406 12.2423C16.9503 12.0906 17.2919 12.0157 17.6366 12.0241C18.0873 12.0149 18.53 12.144 18.9051 12.3941C19.1847 12.5769 19.5115 12.6743 19.8456 12.6743C20.1797 12.6743 20.5065 12.5769 20.7861 12.3941C21.1604 12.1452 21.6016 12.0164 22.051 12.025V12.6737C21.7164 12.6645 21.3876 12.7624 21.1124 12.9529C20.7367 13.2028 20.2935 13.3317 19.8424 13.3223Z" fill="white"/>
<path d="M15.4314 13.3212C14.9819 13.3307 14.5404 13.2019 14.1665 12.9525C13.8875 12.77 13.5614 12.6728 13.2281 12.6728C12.8947 12.6728 12.5686 12.77 12.2896 12.9525C11.911 13.1935 11.4715 13.3215 11.0226 13.3215C10.5738 13.3215 10.1343 13.1935 9.75568 12.9525C9.47673 12.7701 9.15068 12.673 8.81741 12.673C8.48413 12.673 8.15809 12.7701 7.87914 12.9525C7.50457 13.2016 7.06276 13.3303 6.61297 13.3212C6.16291 13.3305 5.7208 13.2017 5.34616 12.9521C5.07104 12.7614 4.74222 12.6635 4.40757 12.6726C4.07424 12.6636 3.74676 12.7613 3.47287 12.9515C3.09816 13.2015 2.65577 13.3306 2.20541 13.3212C1.75534 13.3305 1.31323 13.2017 0.938595 12.9521C0.66347 12.7614 0.334649 12.6635 0 12.6726V12.0239C0.45017 12.0146 0.892396 12.1434 1.26714 12.393C1.54211 12.5838 1.87085 12.6817 2.20541 12.6726C2.54011 12.6818 2.86899 12.5837 3.144 12.3927C3.51794 12.1432 3.95944 12.0145 4.40887 12.0239C4.85893 12.0146 5.30103 12.1434 5.67568 12.393C5.95065 12.5838 6.27939 12.6817 6.61395 12.6726C6.9486 12.6817 7.27742 12.5837 7.55254 12.393C7.93116 12.152 8.37068 12.0239 8.81951 12.0239C9.26835 12.0239 9.70787 12.152 10.0865 12.393C10.3654 12.5754 10.6915 12.6725 11.0248 12.6725C11.358 12.6725 11.6841 12.5754 11.963 12.393C12.3417 12.1518 12.7813 12.0237 13.2303 12.0237C13.6793 12.0237 14.1189 12.1518 14.4976 12.393C14.7834 12.5852 15.1222 12.6829 15.4664 12.6722C15.4914 12.6726 15.5164 12.6713 15.5413 12.6684L15.6276 13.3112C15.5625 13.3188 15.4969 13.3221 15.4314 13.3212V13.3212Z" fill="white"/>
<path d="M19.8464 11.0478C19.3959 11.057 18.9534 10.9282 18.5783 10.6787C18.2991 10.4962 17.9727 10.3991 17.6392 10.3991C17.3056 10.3991 16.9793 10.4962 16.7001 10.6787C16.3215 10.9197 15.8821 11.0477 15.4333 11.0477C14.9845 11.0477 14.5451 10.9197 14.1665 10.6787C13.8877 10.4964 13.5617 10.3993 13.2285 10.3993C12.8954 10.3993 12.5694 10.4964 12.2906 10.6787C11.912 10.9198 11.4726 11.0478 11.0238 11.0478C10.575 11.0478 10.1355 10.9198 9.75697 10.6787C9.47814 10.4964 9.15219 10.3993 8.81903 10.3993C8.48586 10.3993 8.15992 10.4964 7.88108 10.6787C7.50646 10.9283 7.06434 11.0571 6.61427 11.0478C6.1642 11.0571 5.72208 10.9283 5.34746 10.6787C5.07259 10.488 4.74396 10.39 4.40951 10.3991C4.07517 10.3901 3.74667 10.488 3.47189 10.6787C3.09786 10.928 2.65645 11.0568 2.20703 11.0478C1.75686 11.0571 1.31463 10.9283 0.939892 10.6787C0.664467 10.4876 0.335107 10.3896 0 10.3991V9.7505C0.450063 9.74119 0.892172 9.87 1.26681 10.1196C1.54194 10.3103 1.87076 10.4083 2.20541 10.3991C2.53975 10.4082 2.86825 10.3103 3.14303 10.1196C3.51706 9.87025 3.95847 9.74145 4.40789 9.7505C4.85829 9.74093 5.30079 9.86975 5.67568 10.1196C5.95065 10.3104 6.27939 10.4083 6.61395 10.3991C6.9485 10.4083 7.27724 10.3104 7.55222 10.1196C7.93076 9.87848 8.37023 9.75042 8.81903 9.75042C9.26782 9.75042 9.7073 9.87848 10.0858 10.1196C10.3647 10.302 10.6907 10.3991 11.0239 10.3991C11.3572 10.3991 11.6832 10.302 11.9621 10.1196C12.3406 9.87848 12.7801 9.75042 13.2289 9.75042C13.6777 9.75042 14.1171 9.87848 14.4957 10.1196C14.7746 10.302 15.1006 10.3991 15.4338 10.3991C15.767 10.3991 16.093 10.302 16.3719 10.1196C16.7508 9.87858 17.1906 9.75058 17.6397 9.75058C18.0888 9.75058 18.5285 9.87858 18.9075 10.1196C19.1868 10.3019 19.5133 10.399 19.8469 10.399C20.1805 10.399 20.5069 10.3019 20.7863 10.1196C21.1613 9.87015 21.6037 9.74137 22.0541 9.7505V10.3991C21.7188 10.3897 21.3892 10.4876 21.1135 10.6787C20.7386 10.928 20.2965 11.0568 19.8464 11.0478V11.0478Z" fill="white"/>
<path d="M15.2231 10.7735L14.6111 10.5588C14.7687 10.1059 14.8331 9.62587 14.8004 9.14749C14.7677 8.66911 14.6385 8.20228 14.4207 7.77511L12.1929 3.41262C12.1709 3.36954 12.1588 3.32209 12.1576 3.27373C12.1563 3.22538 12.1658 3.17735 12.1855 3.13316C12.2052 3.08898 12.2345 3.04976 12.2713 3.01837C12.3081 2.98698 12.3515 2.96422 12.3982 2.95176L16.8379 1.76798C16.9826 1.73014 17.1065 1.6367 17.1826 1.50799C17.2587 1.37928 17.281 1.22571 17.2445 1.0807C17.2079 0.935679 17.1156 0.810945 16.9876 0.733633C16.8596 0.656321 16.7063 0.632685 16.5609 0.667868L11.1875 1.95219C11.0727 1.97934 10.9656 2.03256 10.8746 2.10774C10.7836 2.18292 10.7111 2.27804 10.6628 2.38572C10.6145 2.49341 10.5916 2.61078 10.5959 2.72873C10.6002 2.84669 10.6317 2.96206 10.6877 3.06592L12.2834 6.03024C12.3239 6.10559 12.333 6.19386 12.3087 6.27586C12.2844 6.35787 12.2287 6.42695 12.1537 6.46808L10.0942 7.60322L9.78125 7.035L11.5592 6.05489L10.1172 3.37338C10.0141 3.18195 9.95635 2.96937 9.94848 2.75206C9.94061 2.53475 9.98283 2.31855 10.0719 2.12016C10.1609 1.92177 10.2944 1.74652 10.462 1.60796C10.6295 1.46939 10.8267 1.37123 11.0383 1.32106L16.4091 0.0370572C16.7218 -0.0419486 17.0531 0.00648876 17.33 0.171713C17.607 0.336938 17.8069 0.605415 17.886 0.918084C17.965 1.23075 17.9165 1.562 17.7513 1.83896C17.5861 2.11591 17.3176 2.31589 17.0049 2.39489L12.9528 3.47489L14.9987 7.47965C15.2563 7.98517 15.409 8.53757 15.4475 9.10363C15.4861 9.66969 15.4097 10.2377 15.2231 10.7735V10.7735Z" fill="white"/>
<path d="M8.6522 7.66419L4.71094 9.83594L5.02383 10.4038L8.96508 8.23202L8.6522 7.66419Z" fill="white"/>
<path d="M18.159 8.61486C17.6779 8.61486 17.2076 8.4722 16.8076 8.20492C16.4076 7.93765 16.0958 7.55775 15.9117 7.11328C15.7276 6.66881 15.6794 6.17973 15.7733 5.70789C15.8672 5.23604 16.0988 4.80262 16.439 4.46244C16.7792 4.12226 17.2126 3.8906 17.6844 3.79674C18.1563 3.70288 18.6454 3.75105 19.0898 3.93516C19.5343 4.11926 19.9142 4.43103 20.1815 4.83105C20.4488 5.23106 20.5914 5.70134 20.5914 6.18243C20.5907 6.82734 20.3342 7.44564 19.8782 7.90166C19.4222 8.35768 18.8039 8.61418 18.159 8.61486V8.61486ZM18.159 4.39865C17.8062 4.39865 17.4613 4.50327 17.168 4.69927C16.8746 4.89528 16.646 5.17386 16.511 5.49981C16.376 5.82575 16.3407 6.18441 16.4095 6.53043C16.4783 6.87645 16.6482 7.19429 16.8977 7.44376C17.1471 7.69322 17.465 7.86311 17.811 7.93194C18.157 8.00077 18.5157 7.96544 18.8416 7.83043C19.1676 7.69542 19.4461 7.46679 19.6422 7.17345C19.8382 6.88011 19.9428 6.53523 19.9428 6.18243C19.9422 5.70953 19.754 5.25616 19.4197 4.92177C19.0853 4.58738 18.6319 4.39925 18.159 4.39865V4.39865Z" fill="white"/>
</svg>
